<?xml version="1.0" encoding="utf-8"?>
<!-- Generator: Adobe Illustrator 27.9.0, SVG Export Plug-In . SVG Version: 6.00 Build 0)  -->
<svg version="1.1" id="Layer_1" xmlns="http://www.w3.org/2000/svg" xmlns:xlink="http://www.w3.org/1999/xlink" x="0px" y="0px"
	 viewBox="0 0 1920 1080" style="enable-background:new 0 0 1920 1080;" xml:space="preserve">
<style type="text/css">
	.st0{fill:#492C0E;}
</style>
<g>
	<g>
		<path class="st0" d="M874.9,491.5l-1.7,1.5c-6.1-1.3-16.4-2-30.8-2c-4.1,0-6.8,0.9-8,2.6s-1.7,5-1.7,9.6c0,14.2,0.8,23.8,2.4,28.8
			c0.2,0.5,0.8,1.7,1.9,3.5c1.1,1.8,1.7,3.1,1.7,3.8c0,0.8-0.6,2.2-1.8,4.2h-8c-1.3,0-3.2-1.4-5.5-4.2c-2.3-2.8-3.5-5-3.5-6.5
			c0-0.7,0.2-1.7,0.8-3.1c0.5-1.4,0.8-2.5,0.8-3.1c0-2.7,0.1-6.8,0.2-12.2c0.2-5.5,0.2-9.6,0.2-12.2c0-6-0.9-9-2.8-9
			c-7.5,0-18.7,1.1-33.5,3.2c-14.8,2.2-25.9,3.2-33.5,3.2c-4.3,0-9.7-1.8-16-5.5c-6.9-4.2-10.3-8.3-10.3-12.3
			c0-5.2,5.1-12.6,15.2-22.3c7.3-6.3,14.7-12.8,22-19.3c12.2-10.7,30-27.2,53.5-49.6c3.3-4.3,6.7-8.6,10-12.8
			c4.3-5.2,8.8-7.8,13.2-7.8c2.5,0,4.8,0.9,6.9,2.7c2.1,1.8,3.1,4,3.1,6.5c0,1.3-0.7,4.1-2,8.2c-1.7,5.5-2.6,8.5-2.8,9
			c-0.8,3.7-3.2,18.2-7,43.6c-2.8,18.8-4.2,30.6-4.2,35.6c0,1.8,0.8,3.3,2.2,4.5c1.5,0,3.9,0,7.2,0c3.3,0,5.8,0,7.5,0
			c12.8,0,20.8,2.4,24,7.1V491.5z M827.7,403.3h-2.8c-11,6.8-26.4,18.9-46.2,36.2c-23.7,20.5-35.5,33.8-35.5,40c0,5,3.1,7.4,9.2,7.2
			h1l67.8-5.5L827.7,403.3z"/>
		<path class="st0" d="M1011.1,448.8c0,22.3-5.4,42.4-16.2,60.2c-12.5,21-29.2,31.5-50,31.5c-19.8,0-35.5-7.9-47-23.8
			c-10.3-14.2-15.5-31.5-15.5-52c0-17.5,4.5-35.2,13.5-53.2c10.2-20,22.8-32.7,37.8-38c6.2-2.3,13.6-3.5,22.2-3.5
			c2.7,0,8.2,1.8,16.8,5.2c13,5.2,22.9,15.4,29.8,30.8C1008.2,418.9,1011.1,433.1,1011.1,448.8z M998.6,447.8
			c0-18.2-3.2-33.2-9.7-45.2c-8.3-15-20.8-22.5-37.4-22.5c-5.8,0-11.8,2-18,6c-12.5,8-22.1,19.6-28.9,34.8
			c-6.2,14-9.2,28.9-9.2,44.8c0,8.7,0.6,15.6,1.7,20.8c2.5,11.7,8.4,21.3,17.8,29c9.4,7.7,20.1,11.5,32,11.5
			c17.6,0,31.1-9.2,40.4-27.8C994.9,484.4,998.6,467.3,998.6,447.8z"/>
		<path class="st0" d="M1170.1,491.5l-1.7,1.5c-6.1-1.3-16.4-2-30.8-2c-4.1,0-6.8,0.9-8,2.6s-1.7,5-1.7,9.6
			c0,14.2,0.8,23.8,2.4,28.8c0.2,0.5,0.8,1.7,1.9,3.5c1.1,1.8,1.7,3.1,1.7,3.8c0,0.8-0.6,2.2-1.8,4.2h-8c-1.3,0-3.2-1.4-5.5-4.2
			c-2.3-2.8-3.5-5-3.5-6.5c0-0.7,0.2-1.7,0.8-3.1c0.5-1.4,0.8-2.5,0.8-3.1c0-2.7,0.1-6.8,0.2-12.2c0.2-5.5,0.2-9.6,0.2-12.2
			c0-6-0.9-9-2.8-9c-7.5,0-18.7,1.1-33.5,3.2c-14.8,2.2-25.9,3.2-33.5,3.2c-4.3,0-9.7-1.8-16-5.5c-6.9-4.2-10.3-8.3-10.3-12.3
			c0-5.2,5.1-12.6,15.2-22.3c7.3-6.3,14.7-12.8,22-19.3c12.2-10.7,30-27.2,53.5-49.6c3.3-4.3,6.7-8.6,10-12.8
			c4.3-5.2,8.8-7.8,13.2-7.8c2.5,0,4.8,0.9,6.9,2.7c2.1,1.8,3.1,4,3.1,6.5c0,1.3-0.7,4.1-2,8.2c-1.7,5.5-2.6,8.5-2.8,9
			c-0.8,3.7-3.2,18.2-7,43.6c-2.8,18.8-4.2,30.6-4.2,35.6c0,1.8,0.8,3.3,2.2,4.5c1.5,0,3.9,0,7.2,0c3.3,0,5.8,0,7.5,0
			c12.8,0,20.8,2.4,24,7.1V491.5z M1122.9,403.3h-2.8c-11,6.8-26.4,18.9-46.2,36.2c-23.7,20.5-35.5,33.8-35.5,40
			c0,5,3.1,7.4,9.2,7.2h1l67.8-5.5L1122.9,403.3z"/>
	</g>
	<g>
		<path class="st0" d="M674.9,703.3l-0.4,0c-0.7,0-1.5-0.4-2.5-1.2c-1-0.8-1.5-1.6-1.6-2.6c-0.1-0.9-0.4-1.8-0.9-2.5
			c-0.8-1-1.4-3.3-1.5-6.7l-0.4-6.6c-0.3-6.6-0.5-10-0.5-10.2c0-0.2,0-0.8,0-1.7l0-2.5l0.3-12.4c0.1-0.1,0.1-0.3,0.1-0.8
			c-0.1-1,0-2.3,0.1-3.9l0-2c0.3-3.1,0.6-6.1,0.8-9l0.6-5.1c0.4-2,0.6-3.5,0.7-4.5l0.2-1.2c0.2-0.8,0.3-1.8,0.4-3
			c0.4-2.1,0.6-3.6,0.7-4.6c0-0.7,0-1.1-0.2-1.2c-0.2,0-0.3,0-0.3,0.1l0.1,0.7l0,0.2c0,0.1-0.1,0.2-0.2,0.2l-0.1,0
			c-0.1,0-0.1-0.1-0.2-0.2c0-0.4-0.2-0.6-0.7-0.8c-0.2-0.1-0.3-0.3-0.3-0.5c-0.3-0.3-0.4-1.5-0.2-3.5c0.1-1.1,0.2-1.7,0.3-1.9
			c0.3-0.5,0.5-1.1,0.7-1.8c0.3-1.1,0.4-1.7,0.5-1.8c0.1-0.1,0.1-0.2,0.1-0.3c0-0.1,0-0.2-0.2-0.2l-0.1,0c-0.2,0-0.3-0.1-0.3-0.2
			c0-0.1,0-0.1,0.1-0.2c0-0.1,0.1-0.1,0.2-0.1c0.1,0,0.2-0.1,0.3-0.4c0.6-2.1,1-3.4,1.3-3.9c0.3-0.5,0.4-1,0.5-1.4
			c0-0.1,0-0.2,0-0.2c0,0-0.1-0.2-0.1-0.4c0.1,0,0.1,0,0.1,0.1c0.2,0,0.5-0.6,1-1.9c0.2-0.7,0.4-1.4,0.7-2.2
			c0.9-2.4,1.6-4.2,1.8-5.4l0.5-1.1c0.3-0.8,0.9-1.2,1.8-1.4c0.4,0,0.6,0.1,0.7,0.4c0,0.2,0.1,0.3,0.1,0.3c0.1,0,0.1,0,0.2,0
			c0.1,0,0.3-0.1,0.6-0.2c0.6-0.3,1.3-0.5,1.9-0.4c0.8,0.1,1.6,0.5,2.3,1.2c0.7,0.7,1,1.5,0.9,2.2c0,0.4-0.2,0.9-0.5,1.5
			c-0.2,1-0.3,1.7-0.4,2.1c-0.1,0.4-0.2,0.7-0.2,0.8c-0.1,0.1-0.2,0.5-0.3,1.1c-0.2,0.6-0.3,1.3-0.5,2.1c-0.1,0.8-0.3,1.6-0.5,2.5
			c-0.6,2-0.9,3.7-1,5.1c-0.1,1.1-0.2,1.7-0.3,1.8c-0.1,0.1-0.2,0.3-0.2,0.6l0.1,0.5c0,0.1-0.1,0.2-0.2,0.3
			c-0.1,0.1-0.2,0.3-0.2,0.8l-0.1,1.3c-0.1,0.3-0.2,0.5-0.3,0.6c-0.1,0.1-0.2,0.2-0.2,0.4c0,0.1-0.1,1-0.4,2.6
			c-0.1,0.6-0.2,1.3-0.3,2c-0.1,0.7-0.2,1.4-0.3,2.1c-0.1,0.6-0.2,1.1-0.2,1.5s-0.2,1.4-0.5,3.2c-0.2,0.5-0.3,1-0.3,1.5
			c0,0.5,0,0.8,0,0.9c0.1,0.1,0.1,0.3,0.1,0.5c0,0.1-0.1,0.3-0.3,0.5c-0.2,0.2-0.3,1.5-0.5,3.9c-0.1,0.2-0.1,0.4-0.2,0.7
			c0,0.3-0.2,0.7-0.4,1.2c0.2-0.2,0.4-0.5,0.6-0.7c0.2-0.3,0.3-0.6,0.3-0.9c0-0.3,0.3-1.2,0.7-2.7c1.2-3.8,2.2-6.9,3.3-9.3l1.7-4.4
			c0.1-0.1,0.1-0.1,0.1-0.3c0.5-1.4,1.2-3,2-4.8c1.4-2.9,2.4-4.7,2.9-5.5c0.7-1.5,1.5-2.8,2.4-3.9l0.2-0.4c0-0.5,1.3-2.1,3.7-5
			c1.4-1.7,2.6-2.8,3.8-3.2c1.1-0.4,2.7-0.6,4.7-0.5l2.9,0.2c0.5,0.1,0.9,0.2,1.2,0.4c0.3,0.2,0.6,0.5,1,0.8c1,0.9,1.7,1.7,2.3,2.5
			c0.5,0.8,1,1.8,1.4,3c0.4,0.9,0.6,1.7,0.7,2.4c0.1,0.7,0.1,1.6,0.1,2.9c-0.2,2.3-0.4,4.1-0.6,5.4c-1.1,4.2-1.7,6.4-1.9,6.7
			c-0.1,0-0.2,0.3-0.4,0.8c-0.2,0.6-0.6,1.7-1.4,3.3c-2,4.4-3.4,7.2-4.1,8.4c-0.5,0.7-0.8,1.2-0.9,1.4c0,0.2-0.4,0.8-1.1,1.6
			c-2.8,3.3-5.4,5.6-7.7,7c-0.9,0.5-1.5,0.7-1.8,0.7l-0.4-0.1l-0.5,0.1c-0.5,0.1-1.2,0.3-2,0.8c-0.2,0.1-0.6,0.2-1.3,0.3
			c-0.7,0.1-1.5,0.2-2.5,0.2c-0.9,0-1.9,0-2.8-0.1c-0.2,0-0.3-0.1-0.4-0.2c-0.1-0.1-0.2-0.1-0.3-0.2c-0.4,0-0.7,0.2-0.8,0.5
			c-0.1,0.4-0.3,1.2-0.5,2.5l-0.7,3.1c-0.5,1.9-0.9,4.2-1.4,6.8c0,0.6-0.1,1.1-0.2,1.6c-0.1,0.4-0.1,0.7-0.1,0.8
			c0,0.1-0.2,0.9-0.4,2.5l-0.2,1.8c-0.2,1.3-0.4,2.9-0.5,4.8c-0.1,2.1-0.3,5.1-0.4,9l-0.4,5l-0.2,3.8c0.1,2.5,0.1,4.4,0.2,5.7
			c0,1.3,0.1,2.3,0.2,3c0.1,0.6,0.2,1.1,0.4,1.5c0.2,0.4,0.2,0.7,0.2,0.9c0,0.2-0.1,0.3-0.2,0.3c-0.2,0-0.2,0.3-0.3,0.8
			c0.1,0.1,0.1,0.2,0.1,0.3c0,0.3-0.1,0.5-0.3,0.7c-0.2,0.2-0.3,0.4-0.4,0.6c-0.4,0.9-0.7,1.4-0.8,1.5
			C675.7,703.2,675.3,703.4,674.9,703.3z M669.7,688.1c0-0.7,0-4.1,0-10.1c-0.3-11.3-0.2-20.5,0.3-27.9c0.1-1.9,0.3-3.8,0.5-5.5
			c0.3-2.1,0.6-4.4,0.7-6.9c0-0.5,0.1-1,0.1-1.5c0.1-0.4,0.1-0.7,0.2-0.9c0-0.1,0.1-0.4,0.1-0.8l0.4-2.6c0-0.5,0.1-1,0.2-1.4
			c0.1-0.4,0.2-0.7,0.2-1l0.1-0.8c0-0.7,0.3-2.5,0.8-5.7l0-0.6c0-0.5,0-0.8-0.1-0.8c-0.1,0-0.2,0.2-0.3,0.7c-0.1,0.5-0.2,1.2-0.3,2
			c-0.1,0.8-0.2,1.5-0.3,2.1c-0.1,0.5-0.2,1.1-0.3,1.7c-0.2,1-0.5,2.8-0.9,5.3l-0.3,2.7c-0.4,3.1-0.7,5.8-0.9,8.2l-0.2,2.7
			c-0.1,0.2-0.1,0.6-0.2,1.2l0,1.6c-0.2,2.5-0.3,3.8-0.4,4l-0.1,11.8c0,0.8,0,1.9-0.1,3.1c-0.1,0-0.1,0.1-0.1,0.2
			c-0.1,1,0.1,4.4,0.5,10.4c0.2,3.1,0.3,5.4,0.3,7L669.7,688.1z M670.6,675.6c0.1-0.1,0.1-0.5,0.2-1c0.1-0.6,0.2-1.2,0.3-2
			c0.2-2.2,0.2-4,0.2-5.3c-0.1-0.7-0.1-1.3-0.1-1.8c0-0.5,0.1-0.8,0.1-0.8c0.1-0.1,0.1-0.2,0.1-0.4c0-0.7,0.1-1.7,0-3
			c0-1.4,0-2.3,0-2.9l0.1-0.5c0-0.5,0-1,0-1.5c-0.1-0.5-0.1-0.9,0-1.3l0-0.6c0.1-0.1,0.1-0.1,0.1-0.3c0-0.1,0-0.2,0-0.4
			c0-0.2,0-0.5-0.1-0.8c0-0.3,0-0.6,0-0.9c0-0.4,0.1-0.7,0.3-0.8c0.2-0.1,0.3-0.2,0.3-0.3c0-0.1-0.1-0.1-0.3-0.2
			c-0.2-0.1-0.3-0.3-0.3-0.7c0-0.2,0.1-0.4,0.2-0.6c0.1-0.2,0.3-1.2,0.6-3.1c0.3-2.3,0.5-3.8,0.6-4.5c0-0.3,0-0.5,0-0.5
			c0-0.1-0.1-0.2-0.2-0.4l-0.1,0l-0.1-0.1c-0.1-0.1-0.2-0.2-0.2-0.4c0-0.3,0.1-0.4,0.2-0.4l0.4,0c0.2,0,0.3-0.2,0.3-0.7
			c0.1-2.1,0.6-5.7,1.3-10.7l1.4-10.3c0.1-1,0.2-2.2,0.3-3.6c0-0.2-0.1-0.3-0.2-0.3c-0.1,0.1-0.1,0.1-0.2,0.2
			c-0.1,0.1-0.1,0.2-0.2,0.3c-0.1,0.1-0.3,1.4-0.8,3.7c-1.2,6.3-2.1,11.8-2.7,16.5c-0.7,4.7-1.2,10-1.6,16
			c-0.5,7.3-0.5,11.2-0.1,11.6c0.1,0.1,0.2,0.2,0.2,0.3c0,0.1-0.1,0.2-0.2,0.3c-0.1,0.1-0.2,0.5-0.2,0.9c-0.1,1.3-0.1,3.2-0.1,5.6
			C670.4,673.6,670.5,675.6,670.6,675.6z M671.6,620.3c0.1,0,0.1-0.5,0.2-1.6l0-0.2l-0.1,0.2c-0.1,0.1-0.1,0.2-0.2,0.2
			c-0.1,0-0.1-0.2-0.1-0.5c0-0.4,0.1-0.5,0.2-0.5l0.1,0c0.3,0,0.5-0.3,0.5-0.9c0-0.1,0-0.2-0.1-0.2c-0.1,0-0.2,0.1-0.5,0.3
			c-0.3,0.2-0.4,0.6-0.4,1.1l0,0.9C671.3,619.9,671.4,620.3,671.6,620.3z M673.3,620.6c0.2-0.2,0.4-0.7,0.6-1.7c0.2-1,0.3-1.6,0.4-2
			c0-0.2,0-0.4-0.2-0.4c-0.1,0-0.2,0.2-0.3,0.5c-0.1,0.3-0.2,0.6-0.2,0.9l0,0.5L673.3,620.6L673.3,620.6z M675.6,657.8
			c0.1,0,0.2,0,0.3-0.1c0.1-0.1,0.2-0.2,0.2-0.3l-0.3-0.1c-0.2,0-0.3,0.2-0.3,0.3L675.6,657.8z M676,655.8c0.1,0,0.1-0.1,0.3-0.4
			c0.1-0.3,0.2-0.6,0.3-1c0.1-0.4,0.1-0.6,0.1-0.8c0-0.5-0.1-0.8-0.3-0.9c-0.2,0-0.3,0.4-0.4,1.2l0,1l-0.1,0.7L676,655.8
			C676,655.8,676,655.8,676,655.8z M676.6,652.5c0.1,0,0.1-0.1,0.2-0.3c0-0.1,0-0.3-0.1-0.5c0-0.2-0.1-0.4-0.2-0.6
			c-0.1-0.2-0.1-0.3-0.2-0.3l0,0.6C676.5,652.2,676.6,652.5,676.6,652.5z M676.9,650.1c0.3-0.2,0.5-0.4,0.7-0.7l0-0.6
			c-0.1,0-0.3,0.1-0.6,0.4c-0.3,0.3-0.5,0.5-0.5,0.8l0.2,0.1L676.9,650.1z M677.8,647.9l0.1-0.4c0-0.2-0.1-0.3-0.3-0.3
			c-0.1,0.1-0.2,0.1-0.2,0.2c0,0.1,0,0.2,0.2,0.3C677.7,647.8,677.8,647.8,677.8,647.9z M678.1,641.4c0.2,0,0.3-0.1,0.3-0.3
			c0-0.1,0-0.2-0.1-0.2c-0.1,0-0.2,0-0.3,0.1c-0.1,0.1-0.2,0.1-0.2,0.3C677.8,641.3,677.9,641.4,678.1,641.4z M678.1,646.7
			c0.1,0,0.2-0.2,0.3-0.7c0.1-0.4,0.1-0.9,0.2-1.2c0-0.5,0-0.8,0-0.8l-0.1,0.4c-0.1,0.3-0.1,0.6-0.2,0.9c-0.1,0.3-0.1,0.5-0.1,0.7
			L678.1,646.7z M679.5,641.6l0-0.4c0-0.2-0.1-0.4-0.2-0.4c-0.1,0-0.2,0-0.4,0.1c-0.1,0.1-0.2,0.2-0.2,0.2c0,0.1,0.1,0.1,0.3,0.2
			C679.3,641.5,679.4,641.6,679.5,641.6L679.5,641.6z M679.3,640.5l0.2-0.1c0.3-0.3,0.7-1.1,1-2.6c0.4-1.4,0.6-2.2,0.6-2.4l-1.2,1.1
			c-0.7,0.7-1.1,1.2-1.1,1.4l0.1,0l0.1-0.1c0.1-0.1,0.2-0.2,0.4-0.5c0.2-0.3,0.4-0.4,0.7-0.4c0.1,0,0.2,0.1,0.2,0.2
			c0,0.1-0.1,0.3-0.1,0.7c-0.1,0.3-0.2,0.7-0.3,1.2c-0.1,0.5-0.3,0.8-0.4,1C679.3,640.2,679.3,640.3,679.3,640.5L679.3,640.5z
			 M681.5,633.6c0.2,0,0.4-0.2,0.4-0.5c0-0.3,0-0.5-0.1-0.5c-0.1,0-0.2,0.1-0.3,0.3c-0.2,0.2-0.3,0.4-0.3,0.4c0,0.1,0,0.1,0.1,0.2
			C681.4,633.5,681.5,633.6,681.5,633.6z M682.1,632.1c0.1,0,0.1-0.1,0.2-0.3c0.1-0.2,0.2-0.4,0.2-0.6l0-0.1c-0.1,0-0.2,0.1-0.3,0.3
			c-0.1,0.2-0.2,0.4-0.2,0.5L682.1,632.1L682.1,632.1z M682.3,630.7c0.1,0,0.2-0.1,0.4-0.3c0.1-0.2,0.2-0.5,0.3-0.8
			c0.1-0.3,0.1-0.5,0.1-0.7c0-0.1,0-0.2-0.1-0.2c-0.2,0.2-0.3,0.4-0.3,0.6s-0.1,0.5-0.4,0.7c-0.2,0.3-0.3,0.5-0.4,0.5
			C682,630.7,682.1,630.7,682.3,630.7z M683.1,627.4c0.1,0,0.1-0.2,0.2-0.5l0-0.5c-0.1,0-0.1,0-0.2,0c-0.1,0-0.2,0.2-0.2,0.6
			C683,627.3,683.1,627.4,683.1,627.4z M685.4,640.8c0.2,0,0.7-0.1,1.5-0.4l1.2-0.6c0.8-0.5,1.2-0.8,1.2-1l-0.4,0.2l-1.4,0.6
			l-0.7,0.1c0.6-0.5,1.1-0.9,1.5-1.2c2.2-1.7,4.3-3.7,6.3-6.1c1.9-2.4,3.4-4.7,4.3-7.1c0.5-1.4,0.8-2,0.9-2c0.1,0,0.2-0.1,0.4-0.2
			l-0.1-0.2c0-0.2,0.4-1,1-2.3c0.7-1.4,1.3-2.9,1.8-4.5c1.2-4.1,1.9-7,2-8.7c0.2-2.6-0.2-4.5-1.2-5.6c-0.2-0.3-0.3-0.5-0.3-0.8
			l0.1-0.1c0-0.1,0-0.1,0-0.2c0-0.1-0.1-0.1-0.2-0.2l-0.1,0c-0.3,0-0.7,0.3-1.2,0.8c-0.1,0.2-0.2,0.4-0.2,0.6l0.1,0
			c0,0.1-0.2,0.2-0.5,0.3c-0.3,0.1-0.9,0.7-1.6,1.7c-0.7,1-1.1,1.6-1.3,1.5c-0.2,0-0.3,0.2-0.4,0.6c-0.1,0.4-0.5,1.1-1.2,2
			c-0.6,1-1,1.7-1,2.2l0.1,0.3c0,0.1,0,0.1-0.1,0.1l-0.4-0.1c-0.2,0-0.3,0.2-0.3,0.6c0,0.4-0.1,0.6-0.4,0.7
			c-0.2,0.1-0.3,0.2-0.3,0.4c0,0.1,0,0.2,0.1,0.3c0.1,0.1,0.1,0.2,0.1,0.3c0,0.1-0.1,0.2-0.4,0.2c-0.2,0-0.4,0.2-0.4,0.7
			c0,0.5-0.3,0.9-0.7,1.2c-0.4,0.4-0.7,0.6-0.7,0.8s-0.5,1.4-1.5,3.5l-1.2,3c-0.7,1.6-1.2,3-1.7,4.3l-0.8,1.8
			c-0.7,1.6-1.1,2.9-1.2,3.7c0,0.2,0,0.4,0.1,0.6c0,0.2,0.1,0.3,0.1,0.4c0,0.4-0.2,0.8-0.5,1.2c-0.3,0.4-0.6,1-0.8,1.6
			c-0.2,0.7-0.4,1.2-0.4,1.8c0,0.5-0.1,0.9-0.2,0.9c-0.1,0.1-0.2,0.2-0.3,0.4c0,0.2-0.1,0.4-0.1,0.5c0,0.5,0.2,0.8,0.7,0.9
			L685.4,640.8z M684.1,623.3c0.4-0.2,0.6-0.3,0.7-0.4c0.1-0.1,0.1-0.1,0.2-0.1l0.1-0.1l0.2,0.1c0.2,0,0.3-0.1,0.5-0.4
			c0.1-0.3,0.2-0.5,0.2-0.6c0-0.1-0.1-0.1-0.2-0.1l-0.2,0c-0.2,0-0.5,0.3-1,0.7c-0.5,0.4-0.7,0.7-0.7,0.8
			C684,623.3,684,623.3,684.1,623.3L684.1,623.3z M685.4,640.5l-0.2,0c0-0.1,0.1-0.2,0.4-0.4c0.3-0.2,0.4-0.3,0.6-0.3
			c0.2,0,0.3,0.1,0.3,0.2c0,0.1-0.1,0.2-0.2,0.3C686.1,640.5,685.8,640.6,685.4,640.5z M685.9,620.8c0.2,0,0.3-0.1,0.3-0.4
			c0-0.6,0-0.9-0.2-0.9c-0.2,0-0.3,0.2-0.3,0.7C685.7,620.6,685.8,620.8,685.9,620.8z M689.9,638.6c0.1,0,0.2-0.1,0.6-0.4
			c0.3-0.2,0.6-0.5,0.9-0.7c0.3-0.2,0.4-0.4,0.4-0.5c-0.1,0-0.3,0.1-0.7,0.3c-0.3,0.2-0.6,0.4-0.8,0.7
			C690,638.3,689.9,638.5,689.9,638.6z M701.4,626.9c0.2-0.1,0.3-0.3,0.3-0.6l-0.1-0.2l-0.2,0.2c-0.1,0.1-0.2,0.3-0.2,0.4
			C701.2,626.9,701.2,626.9,701.4,626.9L701.4,626.9z"/>
		<path class="st0" d="M745.9,648.3l-0.2,0c-0.2,0-0.5-0.2-0.8-0.4c-0.3-0.3-0.6-0.4-0.9-0.4c-0.1,0-0.2,0-0.3,0.1
			c-0.1,0.1-0.2,0.1-0.3,0.1c-0.1,0-0.3-0.2-0.5-0.6c-0.2-0.4-0.5-0.6-1-0.7c-0.5,0-0.9-0.7-1.4-1.9c-0.6-1.5-1-4-1.2-7.3
			c0-0.2,0-0.5,0-0.6c0-1.1,0-2.7,0.1-4.7c0.4-6.4,1.4-13.8,2.8-22.4l-0.6,1c-0.6,0.8-1,1.4-1.2,1.9c-0.2,0.5-0.3,1.2-0.4,2.1
			c-0.1,0.9-0.2,1.5-0.5,1.9c-0.3,0.4-0.7,0.6-1.4,0.7c-0.6,0.1-1,0.3-1,0.6l0.1,0.2l-0.7,1.1c-0.5,0.8-0.7,1.3-0.7,1.6
			c0,0.2-0.1,0.4-0.4,0.4c-0.2,0-0.4,0.2-0.4,0.6c0.1,0.1,0.1,0.3,0.1,0.5c0,0.1-0.1,0.2-0.2,0.3c-0.3,0.6-0.7,1.3-1.1,2.2
			c-0.5,1.2-0.9,1.9-1,2.1c-0.2,0.2-0.6,0.9-1.1,2.3c-1.1,2.3-2.5,4.7-4,7.2c-1.7,2.4-2.5,3.7-2.5,3.9c0,0.2-0.1,0.4-0.2,0.6
			c-0.1,0.2-0.6,0.7-1.5,1.5c-0.6,0.5-0.9,0.8-0.9,1c0,0.2-0.2,0.3-0.6,0.2c-1.1-0.1-2-0.3-2.6-0.7c-0.3-0.3-0.6-0.5-0.9-0.5
			l-0.3,0.1c-0.3,0-0.5-0.3-0.7-0.8c-0.4-0.6-0.8-1-1.2-1c-0.4,0-0.9-1.2-1.6-3.6c-0.2-0.7-0.2-1.9-0.1-3.5c0.2-2.4,0.6-5.1,1.2-8.1
			c0.9-3.7,2-7.2,3.4-10.4c1.4-3.3,2.6-5.4,3.7-6.3c0.3-0.2,0.5-0.5,0.5-0.7l-0.1-0.4c0-0.2,0.2-0.3,0.6-0.2s0.5-0.1,0.6-0.2
			c0-0.2,0.9-0.6,2.7-1.4c0.9-0.3,2.1-0.4,3.7-0.3c1,0.1,1.7,0.3,2.3,0.5c0.6,0.2,1.4,0.6,2.4,1.2c0.1,0.1,0.7,0.4,1.7,0.9
			c0.3,0.2,0.5,0.3,0.6,0.4l0.2,0l0.2-0.1l-0.1-0.2c0-0.4,1.5-2.5,4.5-6.3c1.3-1.7,2.1-2.5,2.4-2.5c0.1,0,0.2,0.1,0.2,0.4
			c0,0.2,0.2,0.4,0.7,0.4c0.5,0,0.8,0,0.9-0.2c0.1-0.2,0.3-0.3,0.4-0.2c0.4,0,0.5,0.2,0.5,0.4l0,0.5c0,0.1,0,0.1,0,0.1
			c0,0,0.1,0,0.2,0l1.3,0c0.5,0,0.7,0.3,0.7,0.7c0,0.1-0.1,0.3-0.1,0.5c-0.1,0.2-0.1,0.5-0.1,0.9c0,0.3,0,0.6,0.1,0.9s0.1,0.8,0,1.5
			c-0.1,1.1-0.3,2.8-0.6,5c-0.6,3.7-0.9,5.8-0.9,6.4c-0.1,0.5-0.4,4.6-0.9,12.2l-0.3,5c-0.1,1.4-0.2,2.8-0.3,4.1
			c-0.1,1.4-0.1,2.6,0.1,3.7c0.2,1.1,0.5,2.4,0.9,4c0.2,0.9,0.3,1.6,0.3,2c0,0.5-0.4,0.7-1,0.7C746.5,648,746.1,648.1,745.9,648.3z
			 M722.9,633c0.1,0,0.2-0.1,0.3-0.3c0.4-0.5,2.3-3.7,5.6-9.4l5.1-8.8c-0.2-0.7-0.4-1.3-0.6-1.9c-0.2-0.6-0.4-1.1-0.6-1.5
			c-0.2-0.5-0.3-0.8-0.4-0.9c-0.1-0.1-0.2-0.2-0.3-0.2c-0.1,0-0.2,0-0.3,0.1c-0.2,0.1-1,1.4-2.6,4c-2.9,5-4.9,10.8-6,17.3
			c-0.2,0.6-0.2,1-0.3,1.2C722.8,632.9,722.8,633,722.9,633z M725.6,631.8L725.6,631.8c0.1-0.1,0.4-0.3,0.9-0.8
			c0.8-0.7,1.3-1.4,1.5-2.1c0.4-0.8,0.6-1.2,0.8-1.4c0.2-0.2,0.4-0.5,0.6-1.1c0.2-0.6,0.4-0.9,0.6-0.9c0.2,0,0.3-0.2,0.4-0.7
			c0-0.5,0.3-1.1,0.8-1.8c0.5-0.7,0.8-1.2,0.8-1.4s0.2-0.6,0.7-1.2c0.4-0.5,0.7-1,0.9-1.4c0.2-0.4,0.4-0.7,0.6-0.8
			c0.4-0.5,0.6-0.9,0.7-1.2c0-0.3-0.1-0.5-0.3-0.7l-0.1,0c-0.3,0-1.2,1.3-2.7,3.9c-0.8,1.3-1.6,2.7-2.3,4c-1.8,3.1-2.7,4.8-2.7,5.1
			l0.5-0.1c0,0.1-0.1,0.2-0.3,0.3c-0.2,0.1-0.3,0.3-0.4,0.4l0,0.1c0.1,0,0.2,0,0.2,0.1l-0.1,0.1c-0.1,0.1-0.3,0.2-0.4,0.4
			c-0.1,0.2-0.3,0.4-0.4,0.7C725.7,631.4,725.6,631.6,725.6,631.8z M738.9,609.8c0.1,0,0.2-0.3,0.6-1c0.3-0.6,0.6-1,0.8-0.9
			c0.2,0,0.3-0.1,0.3-0.4c0-0.3,0.1-0.4,0.3-0.4c0.2,0,0.3-0.1,0.4-0.4c0.1-0.3,0.6-1.1,1.6-2.3c0.5-1,0.8-1.8,0.9-2.4
			c0-0.2,0-0.3-0.1-0.3c-0.2,0-0.3,0.2-0.5,0.6c-0.3,0.6-0.7,1-1,1.3c-0.5,0.6-1,1.3-1.5,2.1c-1.3,2-2,3.2-2.1,3.7l0,0.1
			C738.7,609.7,738.8,609.8,738.9,609.8z M741.2,631.7c0.1,0,0.4-3.1,1.2-9.3c0.6-4.7,1-8.2,1.4-10.5c0.6-2.5,0.9-4.2,1-5.1
			l-0.1-0.1c-0.2,0.1-0.9,3.7-2.1,10.9c-0.3,1.5-0.5,3.2-0.6,5.1c-0.1,1.1-0.3,2.5-0.4,4.1L741.2,631.7z"/>
		<path class="st0" d="M766.8,693.2c-0.2,0-0.6-0.1-1.1-0.2c-0.5-0.1-1.3-0.3-2.4-0.7c-1.7-0.7-3.3-1.7-4.9-3.1
			c-1.5-1.4-2.5-2.9-3-4.3c-0.5-1.4-0.6-3.2-0.5-5.3c0-0.4,0.1-1.3,0.2-2.8c0.1-1.5,0.6-3.1,1.5-4.7c0.8-1.6,1.4-2.4,1.6-2.4
			c0.1,0,0.2,0.1,0.2,0.3c0,0.4-0.6,1.6-1.9,3.6c-0.5,0.8-0.7,1.3-0.7,1.6c0,0.1,0,0.2,0.2,0.2c0.1,0,0.3-0.1,0.5-0.2
			c0.2-0.2,0.6-0.7,1.1-1.5c0.5-0.8,1-1.7,1.5-2.7c0.5-1,0.7-1.6,0.7-2c0-0.2-0.1-0.4-0.2-0.4l-0.6,0.1c-0.2,0-0.4-0.1-0.3-0.3
			c0-0.4,0.4-0.6,1.3-0.5c0.8,0.1,1.2-0.2,1.3-0.7s0.5-1.3,1.4-2.2c0.5-0.6,0.8-0.9,1-0.9c0.1,0,0.1,0.1,0.1,0.3l-1.7,3.1
			c-1.4,2.7-2.1,4.4-2.1,4.8l0,0.1c0.1,0,0.4-0.3,0.8-1c2.4-4,3.6-6.5,3.7-7.6c0-0.2,0-0.3-0.1-0.5c-0.1-0.1-0.1-0.3-0.1-0.5
			c0-0.2,0.1-0.4,0.2-0.8c0.1-0.3,0.4-0.7,0.7-1.1c0.3-0.4,0.6-0.6,0.9-0.6c0.1,0,0.2,0.1,0.2,0.2c0,0.3-0.3,0.7-0.7,1.1
			c-0.5,0.4-0.7,0.8-0.7,1c0,0.1,0.1,0.1,0.2,0.1c0.4,0,0.8-0.4,1.3-1.1c0.4-0.8,0.7-2.1,1-4.1l-3.2,3l0.8-1.5
			c1-1.6,2.7-3.7,5.1-6.4c7.4-8.1,13.3-12,17.6-11.7c1,0.1,1.7,0,2-0.2c0.3-0.2,0.6-0.8,0.9-1.8c1.5-4.8,2.5-10.1,2.9-15.7l0.1-2.6
			c0.2-4.6-0.1-7-0.8-7c-0.4,0-1.1,0.7-2,2.1l-0.4,0.4l-6.8,8.8c-4.8,6.2-8.9,11.6-12.3,16.2c-5.6,7.8-9.5,11.6-11.7,11.4
			c-0.7,0-1.5-0.4-2.2-1.1c-0.7-0.7-1.1-1.4-1-2c0-0.3-0.1-0.5-0.4-0.5l-0.5,0.1c-0.8-0.1-1.3-0.9-1.5-2.6c-0.3-1.6-0.3-3.6-0.1-6
			l0.2-2.8c0.3-3.1,1.8-7.3,4.3-12.8c1-2.2,1.6-3.2,1.8-3.2l0,0.1c0.1,0,0.3-0.3,0.7-0.8c0.4-0.5,0.9-1.3,1.5-2.3
			c0.6-1,1.4-2.2,2.5-3.5c1.1-1.3,2.1-2.4,3-3.4c3.6-3.5,7.2-5.1,10.7-4.9c2,0.1,3.9,0.8,5.8,2l3.2,2c1.6-2.4,2.4-3.8,2.5-4.1
			c0-0.1,0-0.2-0.2-0.2l-0.7,0.1c-0.3,0-0.4-0.2-0.4-0.5c0-0.2,0.1-0.3,0.4-0.4c0.2-0.1,0.5-0.1,0.8-0.1c0.8,0.1,1.2-0.3,1.3-1
			c0.1-0.8,0.5-1.1,1.3-1c0.1,0,0.5,0.1,1,0.2c0.6,0.1,1.4,0.7,2.5,1.8c0.9,0.8,1.6,2.1,2.1,3.8c0.5,1.7,0.9,4.5,1.3,8.6
			c0.4,2.7,0.4,5.7,0.2,9c-0.8,11.7-5.4,26.4-13.9,44.2C778.6,686.2,772.3,693.6,766.8,693.2z M758.3,677.4c0.1,0,0.4-0.8,0.8-2.3
			l0.2-1.2c0-0.2,0-0.4-0.1-0.4c-0.1,0-0.2,0.1-0.3,0.3c-0.1,0.2-0.3,0.6-0.4,1c-0.2,0.4-0.2,0.9-0.3,1.3
			C758.1,677,758.2,677.4,758.3,677.4z M759.5,667.1L759.5,667.1c0-0.2,0.1-0.5,0.3-0.9c0.2-0.4,0.4-0.6,0.6-0.6
			c0.1,0.1,0.2,0.2,0.3,0.3c0,0.2-0.2,0.5-0.5,0.8C759.9,667,759.6,667.1,759.5,667.1z M761,686.9c0.7,0,1.4-0.2,2-0.8
			c0.6-0.6,1.1-0.9,1.7-0.8c1,0.1,2.4-0.9,4.4-2.8c1.9-1.9,3.7-4.2,5.4-6.9c1.9-3.2,4.1-7.4,6.6-12.6c2.5-5.2,4.5-9.9,6.1-13.9
			l2-4.9l-1.9,0.8c-2.4,1.2-5.4,3.5-8.8,7.1c-3.4,3.5-6.6,7.5-9.6,12c-2.1,2.9-3.2,4.3-3.5,4.3c-0.1,0-0.1-0.1-0.1-0.2
			c0-0.4,0.7-1.6,2.1-3.8c1.6-2.4,2.8-4.1,3.8-5.1c0.8-0.8,1.2-1.4,1.2-1.7s0.9-1.4,2.6-3.3c1.7-1.9,3.7-3.9,6-5.9
			c1.2-1.2,1.8-1.9,1.9-2c-0.2,0-1.3,0.8-3.4,2.5c-3.1,2.8-6.4,6.5-9.8,11.2s-5.9,8.9-7.6,12.8c-0.7,1.8-1,2.8-1,3l0,0.1
			c0.1,0,0.7-1.1,1.9-3.5c1.1-2.3,1.8-3.5,2-3.4c0.4,0,0.5,0.2,0.5,0.6c0,0.5-0.5,1.3-1.3,2.5c-0.9,1.2-1.7,3.1-2.5,5.6
			c-0.8,2.6-1.2,4.9-1.4,6.8c-0.1,1-0.1,1.7,0,2C760.2,686.6,760.5,686.8,761,686.9z M761.2,642.9c0.2,0,1-0.7,2.1-2.1l8.2-10.4
			l8.4-10.6c2-2.5,3.1-4,3.1-4.4c-0.1-0.1-0.1-0.2-0.3-0.2l-1.4,0.3c-0.1,0-0.1,0-0.1-0.1c0-0.1,0.4-0.4,1.1-0.9
			c0.8-0.6,1.2-1,1.3-1.3c0-0.2-0.1-0.4-0.5-0.5c-0.3-0.2-0.7-0.3-1.1-0.3c-0.9-0.1-2.2,0.4-3.9,1.4c-4,2.4-8.4,8.3-13.2,17.9
			c-2.6,5-3.9,8.5-4.1,10.5l0,0.1C761,642.6,761,642.8,761.2,642.9z M761.7,664.1c-0.2,0-0.3-0.1-0.2-0.4c0-0.5,0.2-0.7,0.6-0.7
			c0.4,0,0.6,0.2,0.6,0.4c0,0.2-0.2,0.4-0.7,0.6L761.7,664.1z M765.7,641.9c0.1-0.1,0.3-0.3,0.6-0.9l0.1-0.4c0-0.1,0-0.2-0.2-0.2
			l-0.2,0.2c-0.2,0-0.3,0.1-0.5,0.3c-0.1,0.1-0.2,0.3-0.2,0.5c0,0.4,0,0.5,0.1,0.6L765.7,641.9z M767.3,688.1l0.2-0.1
			c0.8-0.4,1.8-1.1,2.9-2.3c0.9-1,1.6-1.5,2-1.5c0.7,0,2.4-2.3,4.9-7.1c2.9-5.4,6.4-13.1,10.6-23.1l2.4-5.8c0.2-0.6,0.4-1.3,0.4-2
			l0-0.2c-0.1,0-0.3,0.3-0.6,0.8c-0.3,0.6-0.7,1.4-1.2,2.7c-0.5,1.2-1,2.4-1.5,3.5c-0.5,1.1-0.8,1.8-1,2.2c-0.2,0.3-0.5,0.9-0.8,1.8
			c-0.4,0.9-0.7,1.7-1.1,2.7c-0.4,0.9-0.8,1.9-1.2,2.7c-0.4,0.9-0.8,1.5-1,1.9c-0.2,0.4-0.4,0.7-0.5,1c-0.1,0.3-0.1,0.5-0.1,0.7
			l0.1,0.5c0,0.2-0.2,0.3-0.4,0.2s-0.4,0.1-0.4,0.2l0.1,0.5c0,0.5-0.4,1.3-1,2.4c-0.6,1.1-0.9,1.9-1,2.5l0,0.2
			c0,0.4-0.2,0.6-0.4,0.6c-0.2,0-0.4,0-0.6,0.2c-0.2,0.1-0.2,0.3-0.3,0.6c0,0.7-0.4,1.3-1,1.7c-0.5,0.6-0.8,1-0.8,1.2l0,0.5
			c0,0.3-0.1,0.7-0.3,1.1c-0.1,0.4-0.3,0.8-0.6,1c-0.2,0.3-0.4,0.4-0.5,0.4l-0.4-0.1c-0.3,0-0.5,0.3-0.5,1.1l0,1.1
			c0,0.4-0.1,0.5-0.3,0.5l-0.2,0c-0.2,0-1.5,1-3.7,2.9C768,686.9,767.3,687.7,767.3,688.1C767.3,688.1,767.3,688.1,767.3,688.1z
			 M768.1,659.2c0.1,0,0.8-0.8,2.1-2.4c1.3-1.6,2-2.8,2-3.5c0.2-0.8,0.6-1.4,1-1.9c0.3-0.2,0.4-0.5,0.4-0.7c0-0.1,0-0.2-0.2-0.2
			c-0.4,0.2-1.5,1.2-3.2,3c-2,2-2.9,3.2-3,3.5c0,0.3,0.1,0.5,0.2,0.5c0.5,0,1.1-0.7,2-2.1c1-1.3,1.6-2,1.9-2c0.3,0,0.4,0.2,0.4,0.4
			c0,0.4-0.7,1.3-2,2.6c-1.3,1.3-2,2.2-2,2.6C767.9,659.1,767.9,659.2,768.1,659.2z M767.7,638.7l0.3-0.3c1-1,1.9-2.1,2.6-3.3
			c0.7-1.2,1.3-1.7,1.8-1.7l0.4,0.1c0.1,0,0.2-0.1,0.2-0.3l-0.1-0.4c0-0.3,0.6-1.3,1.7-3c1.1-1.7,2.6-3.7,4.4-6
			c1.8-2.3,3.3-4.2,4.3-5.7c1.1-1.5,1.6-2.3,1.6-2.5c-0.1,0-0.9,0.8-2.2,2.4c-3.4,4-6.7,8.2-10.1,12.7
			C769.4,635.3,767.7,637.9,767.7,638.7L767.7,638.7z M769.3,690.5c0.2,0,0.6-0.3,1.2-0.8c1.2-0.9,2.7-2.6,4.6-4.9
			c2.8-3.6,6.3-10.2,10.7-19.8c4.7-10.5,7.6-18.6,8.8-24.2c0.8-4.2,1.3-8.2,1.5-12.1c0.1-1.5,0-2.3-0.2-2.3c-0.2,0-0.4,0.3-0.5,1
			c-0.4,1.2-0.6,2.6-0.7,4.2c-0.1,1.2-0.1,1.9,0.1,2c0.1,0.1,0.2,0.3,0.2,0.5c0,0.2-0.1,0.4-0.3,0.8c-0.2,0.4-0.3,0.8-0.3,1.2
			c0,0.2,0,0.4,0.1,0.6c0.1,0.2,0.1,0.6,0.1,1c-0.1,1.9-1.3,6-3.6,12.1c-2.3,6.2-5.2,13.1-8.9,20.9c-1.9,4-3.9,7.7-6,11
			c-2.1,3.3-3.8,5.6-5.2,6.8C769.8,689.4,769.2,690,769.3,690.5C769.2,690.5,769.2,690.5,769.3,690.5z M771.4,639.3
			c0.1,0,0.6-0.6,1.4-1.9l1-1.9c-1.7,1.8-2.6,2.9-2.7,3.5C771.1,639.2,771.2,639.3,771.4,639.3z M773.9,652.2c0.2,0,0.7-0.3,1.5-1.1
			c0.6-0.6,0.9-1,0.9-1.1l-0.1,0c-0.1,0-0.2,0.1-0.5,0.3c-0.3,0.2-0.6,0.5-0.9,0.8c-0.3,0.3-0.6,0.6-0.7,0.8
			C774,652.1,773.9,652.2,773.9,652.2z M774,634.9c0.1,0,3.3-3.9,9.4-11.6c5.4-7.3,8.2-11,8.2-11.2c-0.2,0-0.8,0.6-1.8,1.9
			c-1.3,1.9-3.1,4.3-5.4,7.1c-2.6,3.2-3.9,4.9-3.9,5c0,0.1-0.2,0.5-0.7,1.1c-0.4,0.6-1,1.3-1.6,2C775.4,632.7,774,634.6,774,634.9z
			 M774.7,649.2c0.2,0,1.5-0.9,3.8-2.8c1.5-1.2,2.2-1.9,2.2-1.9c-0.1,0-1.2,0.7-3.3,2.2C775.6,648,774.6,648.8,774.7,649.2
			L774.7,649.2z M776.9,628.6c0.1,0,0.5-0.4,1.1-1.1c0.3-0.5,0.5-0.9,0.5-1.1l-0.1-0.1c-0.2,0-0.6,0.4-1.1,1.1
			C777.1,628,776.9,628.3,776.9,628.6L776.9,628.6z M788.4,612.4c0.1,0,0.1-0.1,0.2-0.3c0.1-0.2,0.2-0.4,0.3-0.6
			c0.1-0.2,0.2-0.4,0.2-0.5c0-0.3-0.1-0.5-0.2-0.5c-0.4,0-0.7,0.3-0.7,0.9C788.2,612,788.2,612.3,788.4,612.4z M791.8,642.2
			c0.1,0,0.1-0.1,0.2-0.3s0.2-0.4,0.2-0.6c0-0.4-0.1-0.5-0.3-0.6c-0.1,0-0.2,0.3-0.2,0.8C791.7,642,791.8,642.2,791.8,642.2z"/>
		<path class="st0" d="M817.5,653.6l-0.4-0.1c-0.7,0-1.5-0.2-2.2-0.6c-0.9-0.3-1.6-0.5-2-0.5c-0.9-0.2-2-0.9-3.4-2
			c-1.4-1.1-2.6-2.4-3.7-3.9l-0.9-1.1l-0.2-1.2c-0.2-1-0.5-1.9-0.9-2.7c0.1-0.1,0.1-0.3,0.1-0.5s0-0.6-0.1-1c-0.2-1-0.2-2.5,0-4.6
			c0.3-5.2,2.2-10.7,5.6-16.6c2.5-4.5,5.4-8.3,8.6-11.3c2.2-2,3.6-2.9,4.4-2.9c0.2,0,0.3,0.1,0.5,0.2c0.1,0.1,1.4,0.3,3.9,0.4
			c1.1,0.1,2.3,0.5,3.5,1.4c2.2,1.9,3.5,4.6,3.9,8.1c0.1,0.5,0.1,1,0.2,1.4c0,0.4,0.1,0.6,0.1,0.6l-0.3,0.7
			c-0.2,0.2-0.3,0.4-0.3,0.8l0.5-0.1c0.1,0,0.1,0,0.1,0.1l0,0.2c0,0.1-0.1,0.2-0.4,0.3c-0.3,0.1-0.4,0.2-0.4,0.3
			c0,0.1,0,0.1,0.1,0.2c0.1,0.1,0.1,0.2,0.2,0.4c-0.1,0.1-0.2,0.1-0.5,0.1c0,0.1,0,0.2,0.2,0.4c0.1,0.1,0.2,0.2,0.2,0.3
			c0,0.1-0.2,0.2-0.6,0.1c-0.1,0-0.1,0.1-0.1,0.4l0.1,0.3c-0.1,0.1-0.1,0.1-0.2,0.1c-0.1,0-0.1,0.1-0.1,0.2l0,0.5
			c0,0.4-0.1,0.6-0.2,0.6c-0.1,0-0.3,0-0.4,0.2c-0.2,0.1-0.3,0.3-0.4,0.5c-0.5,0.8-1.1,1.8-1.9,2.9c-2,3.1-3.3,4.7-3.9,5
			c-0.2,0.1-0.3,0.5-0.3,1.1l-0.1,0.2l-0.1,0c-0.2,0-0.5,0.2-0.9,0.7c-0.6,0.6-1,0.9-1,1.2c0,0.2-0.1,0.4-0.3,0.6
			c-0.1,0.2-0.2,0.3-0.3,0.4c-0.1,0.1-0.2,0.2-0.3,0.4c-0.1,0.2-0.2,0.4-0.2,0.5c-0.2,0.3-0.4,0.5-0.5,0.5c-0.2,0-0.5,0.3-1,1
			c-0.5,0.7-0.9,1-1,1.1c-0.2,0-0.4,0.2-0.7,0.5c-1,0.9-1.5,1.4-1.6,1.5c0,0.1,0,0.2-0.1,0.2c0,0-0.1,0-0.1,0l-0.2-0.1l-0.1,0
			c-0.1,0.1-0.1,0.1-0.1,0.3c0,0.1-0.8,0.9-2.3,2.2s-2.4,2-2.6,2c-0.2,0-0.3,0.1-0.3,0.2c0,0.3,0.1,0.9,0.5,1.8
			c0.1,0.5,0.4,0.8,0.8,0.9c0.6,0,1.3,0,2.1-0.2c0.8-0.2,1.2-0.3,1.4-0.3l0.3,0.1c0.5,0,1.4-0.4,2.9-1.3c0.5-0.3,0.8-0.4,0.9-0.4
			c0.1,0,0.5-0.3,1.1-0.8c0.6-0.5,1.3-1.2,2.1-1.9l3.4-3.5l0.3-0.5l1.1-1.5c0.7-0.9,1-1.4,1-1.5c0-0.1,0-0.3,0.1-0.4
			c0-0.1,0.1-0.1,0.3-0.1c0.1,0,0.4-0.3,0.8-1c0.2-0.2,0.4-0.4,0.6-0.6c0.2-0.2,0.4-0.3,0.7-0.3l0.1,0.1c0,0.2-0.3,0.8-0.9,1.6
			c-0.4,0.5-0.8,1.1-1.1,1.6c-0.2,0.1-0.4,0.3-0.4,0.5c0,0.2-0.1,0.4-0.3,0.6s-0.3,0.3-0.4,0.5c-0.1,0.2-0.2,0.3-0.2,0.4
			c0,0.4-0.1,0.5-0.3,0.5c-0.2,0-0.2,0-0.2,0.1l0.1,0.2l-0.1,0.2l-0.1,0.6c0.4,0,2.6-2.8,6.6-8.4c0.8-1.2,1.7-2.4,2.6-3.6
			c3-4.3,4.7-6.8,5.2-7.7l0.4-0.6c0.4,0.8,1,1.3,1.8,1.8c-0.2,0.3-0.3,0.6-0.4,0.8c0,0.2-0.3,0.7-0.8,1.5c-3,5.4-5,8.7-6.2,9.9
			c-0.2,0.3-0.4,0.5-0.5,0.7c-0.1,0.2-0.2,0.3-0.2,0.3l0.1,0.2c0,0.1-0.1,0.2-0.2,0.5c-0.1,0.3-0.3,0.4-0.4,0.4l-0.1,0
			c-0.1,0.1-0.1,0.3,0.1,0.6c0.1,0.3,0.1,0.5,0.1,0.6c-0.1,0.1-0.2,0.2-0.4,0.3c-0.2,0.1-0.3,0.2-0.5,0.4c-0.1,0.2-0.2,0.3-0.2,0.5
			c0,0.2-0.1,0.4-0.2,0.8c-0.3,0.8-0.6,1.3-0.9,1.6c-0.1,0.1-0.1,0.1-0.1,0.3c-0.3,0.8-0.7,1.5-1.3,2.4c-1.9,2.4-3.5,4.2-4.9,5.4
			c-3.4,2.5-6.1,3.8-8.1,4C818.7,653.6,817.9,653.7,817.5,653.6z M812.1,636.9c0.3-0.2,0.5-0.6,0.8-1.1c0.3-0.5,0.5-0.7,0.6-0.7
			l0.2,0c0.1,0,0.1,0,0.2,0c0.1,0,0.2-0.1,0.3-0.2c0.1-0.1,0.2-0.2,0.2-0.3c0-0.1,0-0.2-0.2-0.2c-0.1,0-0.2,0-0.2-0.1l0.5-0.4
			c0.5-0.4,1-0.9,1.4-1.4c0.4-0.5,0.8-0.8,1.2-0.9c0.4-0.1,0.6-0.2,0.6-0.3l-0.1-0.1c-0.1-0.1-0.2-0.2-0.2-0.3
			c0-0.1,0.1-0.1,0.2-0.3c0.1-0.1,0.3-0.2,0.6-0.2c0.3,0,0.5,0,0.5-0.1l-0.2-0.1c-0.1-0.1-0.1-0.2-0.1-0.4c0-0.3,0.2-0.6,0.6-1
			l0.4-0.2l0.2,0.2l0.1-0.1l-0.1-0.5c0-0.1,0-0.2,0.1-0.3c0.1-0.1,0.2-0.3,0.3-0.4c0.2-0.1,0.3-0.2,0.3-0.2l0.2,0
			c0.1,0,0.2-0.1,0.2-0.3c0-0.2,0.2-0.5,0.4-0.9c0.7-1.1,1.2-1.6,1.3-1.6c0.1,0,0.2,0,0.3-0.2c0.1-0.1,0.2-0.2,0.3-0.4
			c0.1-0.1,0.3-0.5,0.6-1.1c0.3-0.6,0.8-1.3,1.5-2.3c0.1-0.2,0.2-0.5,0.5-1.1c0.2-0.5,0.5-1.2,0.8-1.9c1-2.6,1.5-4.6,1.6-6
			c0.1-0.8,0-1.2-0.1-1.2c-0.1,0-0.2,0-0.2,0c-0.2,0-1.2,0.7-3,2.2c-2.6,2.3-4.6,4.6-5.9,6.9l-4,7.2c-0.5,1-0.9,2.2-1.3,3.5
			c-0.4,1.3-0.7,2.5-1.1,3.4c-0.4,0.9-0.6,1.8-0.6,2.7C811.9,636.7,812,636.9,812.1,636.9L812.1,636.9z M818.5,635.6l0.8-0.8l-0.1,0
			l-0.2,0.1c-0.1,0.1-0.2,0.1-0.3,0.3c-0.1,0.1-0.1,0.2-0.2,0.3L818.5,635.6L818.5,635.6z M833.7,637.6c0.1,0,0.2-0.1,0.3-0.3
			c0.2-0.2,0.3-0.4,0.4-0.5c0.1-0.1,0.2-0.2,0.2-0.3l0-0.1c-0.2,0-0.3,0.1-0.4,0.3C833.9,637,833.7,637.3,833.7,637.6L833.7,637.6z
			 M835.1,635.4c0.2,0,0.6-0.4,1.2-1.3c1.3-2,2.1-3.2,2.3-3.4c0.3-0.2,0.4-0.4,0.4-0.6c0-0.2,0.1-0.3,0.1-0.4l0.1-0.3
			c-0.1,0-0.5,0.5-1.1,1.5c-0.1,0.1-0.1,0.1-0.1,0.1c0,0-0.4,0.6-1.3,1.8c0,0.2-0.3,0.7-0.9,1.5L835.1,635.4L835.1,635.4z
			 M840.3,627.9c0.1,0,0.2-0.1,0.4-0.2c0.5-0.5,0.7-0.9,0.7-1l-0.1-0.1l-0.3,0.3c-0.2,0.2-0.4,0.3-0.5,0.5
			C840.3,627.6,840.3,627.7,840.3,627.9L840.3,627.9z"/>
		<path class="st0" d="M881.4,656.5c-0.7,0-1.2-0.2-1.4-0.6c-0.2-0.3-0.4-0.5-0.7-0.5c-0.3,0-0.9-0.3-1.9-0.8
			c-1.1-0.7-1.8-1.6-2.2-2.5l-0.7-1.5c1.3-11.6,2.8-21.1,4.3-28.7c0.7-3.6,1.2-5.8,1.5-6.7l0.1-0.7c0-0.2-0.1-0.4-0.1-0.5
			c-0.1-0.2-0.1-0.3-0.1-0.4c0-0.2,0.1-0.4,0.1-0.4c0.1,0,0.2,0.1,0.3,0.2c0.1,0.2,0.2,0.2,0.3,0.2l-0.1-0.9c0-0.2,0.2-0.5,0.4-0.7
			c0.3-0.2,0.8-0.4,1.7-0.6c0.9-0.2,1.6-0.3,2.1-0.2c0.6,0,1,0.2,1.1,0.3c0.1,0.2,0.3,0.3,0.5,0.4c0.2,0.1,0.4,0.1,0.7,0.1
			c0.2,0,0.4,0.1,0.6,0.3c0.2,0.2,0.3,0.5,0.5,0.9c0.2,0.4,0.3,0.8,0.3,1.2c0,0.4-0.1,1-0.3,1.8c-0.6,2.9-0.9,4.6-1,5l-0.6,4.1
			c-0.3,1.4-0.4,2.4-0.5,3l0.1,0.8c0.1,0,0.2-0.2,0.2-0.7c0-0.5,0.3-0.9,0.8-1.4c0.5-0.4,0.8-0.9,1-1.3c0.2-0.5,0.4-0.8,0.7-0.9
			c0.3-0.1,0.4-0.3,0.5-0.7c0-0.4,0.1-0.5,0.3-0.5l0.3,0l0.2-0.3c0.5-0.7,1.3-1.5,2.4-2.5c1.4-1.3,2.3-1.9,2.8-1.9
			c0.5,0,1.2,0,2.1-0.1c0.4-0.1,0.6-0.1,0.8-0.1c0.2,0,0.3,0.1,0.3,0.2c0,0.1,0.2,0.1,0.4,0.2l0.9,0.1l0.5-0.1
			c2.2,0.1,3.9,1.3,5.1,3.6c0.3,0.7,0.6,2.6,0.9,5.6c0.3,3,0.5,6.1,0.6,9.4c0,2.4,0.1,4.2,0.3,5.5c0.2,1.2,0.5,2.5,1.1,3.8
			c0.5,1.3,1,2,1.4,2c0.5,0,1.2-0.2,2.2-0.7c1-0.5,1.9-1,2.7-1.6c0.8-0.6,1.2-1,1.2-1.3l0-0.5c0.1-0.1,0.2-0.2,0.3-0.3
			c0.2-0.1,0.3-0.2,0.5-0.5c0.6-0.6,0.9-1,1-1c0.1-0.1,0.2-0.1,0.5-0.2c0.2,0,0.4-0.2,0.4-0.4c0-0.2,0.1-0.4,0.2-0.5
			c0.1-0.1,0.2-0.2,0.2-0.2c0.1,0,0.2-0.1,0.3-0.2c0.1-0.1,0.2-0.3,0.3-0.4c0.1-0.1,0.2-0.2,0.3-0.2c0.1,0.1,0.2,0.2,0.3,0.3
			c0.1,0.1,0.1,0.2,0.1,0.3l-0.4,0.6c0.1,0,0.3-0.1,0.8-0.4c0.5-0.2,0.8-0.4,1.1-0.3c0.3,0,0.4,0.2,0.4,0.5c0,0.2-0.1,0.4-0.2,0.6
			c-0.1,0.2-0.2,0.4-0.2,0.5c0,0.1,0.1,0.2,0.2,0.2c0.1,0,0.2,0.3,0.2,0.8c-0.1,1.3-0.4,2.4-0.9,3.3c-2,3.5-4,5.4-5.9,5.7
			c-1.1,0.2-2.2,0.2-3.2,0.1c-1.5-0.1-2.9-0.5-4.2-1.1c-1.3-0.6-2.2-1.2-2.7-1.7c-0.5-0.5-1-0.8-1.3-0.9c-0.3-0.1-0.7-0.4-1.2-0.9
			c-0.5-0.5-1-1.2-1.5-2c-1.1-1.8-2-5.2-2.5-10.2c-0.1-1.5-0.2-3.1-0.2-4.6c0-2.9-0.2-5.1-0.5-6.6c0-0.2-0.1-0.4-0.1-0.5
			c0-0.2,0-0.2-0.2-0.2c-0.3,0-1,0.7-2,2c-1.3,1.7-3,4.3-5,7.6c-1,1.7-1.6,2.8-1.9,3.3c-0.2,0.5-0.6,1.3-1.1,2.4
			c-0.5,1.1-1,2.1-1.5,3l-0.9,2.2c-0.2,0.8-0.5,1.8-1.1,3.1c-0.5,1.3-0.9,2.9-1,4.9c0,0.7,0,1.2,0.1,1.6c0,0.5-0.3,0.9-0.8,1.2
			C882.7,656.5,882.1,656.6,881.4,656.5z M878.1,643.2l0.2-0.3c0.1-0.2,0.2-0.4,0.2-0.5c0-0.2,0-0.4-0.1-0.5s-0.2-0.1-0.2-0.2
			c-0.1,0-0.1,0.1-0.1,0.4C878,642.9,878,643.2,878.1,643.2z M878.4,641.4c0.2,0,0.3-0.1,0.3-0.4c0-0.3-0.1-0.5-0.2-0.5
			c-0.2,0-0.4,0.1-0.4,0.4S878.2,641.3,878.4,641.4z M878.7,639.6c0.2,0,0.3-0.2,0.3-0.7c0-0.5,0-0.7-0.2-0.7
			c-0.1,0-0.2,0.2-0.2,0.7C878.5,639.3,878.6,639.6,878.7,639.6z M879,637.5c0.1,0,0.2-0.2,0.2-0.5c0-0.1,0-0.2-0.1-0.3
			c-0.1,0-0.2,0.1-0.2,0.4C878.9,637.4,879,637.5,879,637.5z M879.1,635.5c0.1,0,0.1-0.1,0.2-0.2c0-0.1,0.1-0.3,0.2-0.4
			c0.1-0.1,0.1-0.3,0.1-0.4c0-0.3,0-0.5-0.1-0.5c-0.2,0-0.3,0.3-0.3,0.8L879.1,635.5z M879.5,633.7l0.2-0.4c0-0.2,0-0.3-0.2-0.3
			L879.5,633.7z M879.7,632L879.7,632c0.1-0.8,0.1-1.2,0.1-1.3c-0.1,0-0.1,0.2-0.1,0.6C879.7,631.8,879.7,632,879.7,632z M886,632.2
			c0.1,0,0.2-0.1,0.4-0.2c0.2-0.2,0.5-0.6,0.9-1.2c0.4-0.6,0.6-0.9,0.8-0.9c0.1,0,0.4-0.2,0.7-0.6c0.3-0.6,0.6-1.1,0.9-1.4
			c0.3-0.3,0.4-0.5,0.5-0.6l-0.1-0.1c0-0.2,0.1-0.4,0.3-0.4c0.2,0,0.3-0.2,0.3-0.3l-0.1-0.5c0-0.1,0.1-0.2,0.3-0.2l0.1,0
			c0.2,0,0.4-0.1,0.4-0.4c0-0.3,0.3-0.6,0.8-1c0.5-0.4,0.8-0.7,0.8-0.9l0-0.1c0-0.3,0.3-0.7,0.9-1.3c0.6-0.6,0.9-0.9,0.9-1l-0.1,0
			c-0.2,0-0.6,0.4-1.3,1.1c-0.7,0.7-1.5,1.6-2.4,2.6c-0.9,1-1.5,1.9-2,2.7c-0.5,0.8-1,1.5-1.4,2.2c-0.4,0.7-0.8,1.2-1.1,1.6
			C886.2,631.7,886,632.1,886,632.2z M901.6,639l0.2-1.3c-0.1-0.9-0.1-1.4-0.3-1.4c-0.1,0-0.2,0.1-0.1,0.4l0,0.3
			c0.1,0.4,0.1,0.8,0.1,1.3C901.5,638.8,901.5,639,901.6,639z M901.7,640.5c0.1,0,0.1,0,0.1-0.2c0-0.1,0.1-0.2,0.1-0.4
			c0-0.1,0-0.2,0-0.2c0,0-0.1,0-0.1-0.1L901.7,640.5z M918.7,646.7l0.3-0.3c0.5-0.5,0.9-1.1,1.4-1.8c0.5-0.8,0.7-1.2,0.7-1.4
			c0-0.1,0-0.1-0.1-0.1l-0.8,1.1c-0.6,1-1,1.7-1.2,1.9C918.8,646.3,918.7,646.4,918.7,646.7L918.7,646.7z"/>
		<path class="st0" d="M929.6,657.9c-0.8-0.1-1.6-0.2-2.2-0.4c-1.5-0.8-3-2-4.6-3.6c-1.5-1.6-2.6-3.2-3.2-4.8
			c-0.6-1.6-0.9-3.3-0.7-5.3c0.1-1.6,0.5-3.4,1.2-5.4c0.7-2,1.3-3.8,2-5.2c0.6-1.4,1.2-2.3,1.5-2.6l0.9-1.5c1.1-2,2.4-3.8,4-5.5
			c1.6-1.7,2.9-2.6,3.8-2.6c0.9-0.1,1.9-0.1,2.8,0c3,0.2,5.8,1.1,8.3,2.6c3.6,2.1,5.8,4.4,6.7,6.9c0.4,0.9,0.6,1.7,0.6,2.6
			c-0.1,1-0.2,2-0.5,3c-1,4.5-2.9,8.8-5.7,12.8c-2.8,4-5.7,6.7-8.8,8C933.9,657.7,931.9,658,929.6,657.9z M928.1,652.5
			c0.5,0,1.5-0.3,2.9-0.8c1.6-0.7,3.2-1.6,4.6-2.8c1.5-1.2,2.6-2.4,3.3-3.6c0.7-1.2,1.1-2,1.1-2.3l0-0.2c0-0.4,0.5-1.7,1.4-3.9
			c0.5-1.1,1-2.2,1.4-3.4c0.8-2.5,1.3-4.4,1.4-5.7c0.1-1.1-0.5-2.3-1.7-3.6c-1.2-1.2-2.1-1.9-2.7-1.9c-0.2,0-0.3,0.1-0.4,0.2
			c-0.2,0.5-0.8,1.1-1.8,1.8c-0.6,0.6-1.4,1.3-2.2,2.2c-2.3,2.3-3.6,3.9-3.9,4.7c-0.4,0.8-0.9,1.6-1.5,2.3c-0.8,1.3-1.6,3-2.3,5.2
			c-1.3,3.4-2,6.3-2.1,8.8c-0.1,0.9,0,1.6,0.2,2.1c0.2,0.5,0.7,0.8,1.4,0.8L928.1,652.5z M940.5,645.1c0.2,0,0.7-0.4,1.4-1.3
			c2.2-2.9,3.7-6.6,4.4-10.9c0.2-0.8,0.3-1.5,0.3-2.1c0-0.7-0.2-1.6-0.7-2.6c-0.7-1-1.2-1.5-1.4-1.5c-0.1,0-0.1,0-0.1,0.1
			c0,0.1,0.1,0.5,0.5,1c0.2,0.3,0.3,0.6,0.4,1c0,0.3,0,0.8,0,1.3c-0.2,1.5-0.6,3.3-1.1,5.4c-0.2,1-0.9,2.5-1.9,4.5
			c-0.7,1.1-1,1.9-1.1,2.5l0,0.1c0.2,0,0.7-0.9,1.6-2.7l1.5-2.7l0,0.2c0,0.2-0.2,0.7-0.5,1.5c-0.3,0.7-0.7,1.6-1.2,2.6
			c-0.5,1-1,1.8-1.4,2.5C940.6,644.5,940.4,644.9,940.5,645.1L940.5,645.1z"/>
		<path class="st0" d="M959.3,680.6l-0.2,0c-0.4,0-0.8-0.1-1.4-0.3l-0.2,0c-0.8-0.3-1.1-0.5-1.1-0.7c0-0.2,0-0.5-0.1-0.8
			c-0.5-1.1-0.8-2-0.9-2.5c-0.1-0.6-0.2-2.3-0.2-5.2c0.1-3.2,0.1-5.4,0-6.6c0-4.9,0.3-11.1,0.8-18.7c0.5-7.6,1.1-14.8,1.9-21.6
			c0.3-2,0.5-4.1,0.7-6.4c0.3-2.8,0.7-5.3,1.1-7.4l0.1-0.3c0.3-1.6,0.6-3.1,0.9-4.8c0.3-1.6,0.7-4,1.3-7.2l1.9-9.4
			c1.4-6.1,2.2-9.5,2.2-10.4c0-0.1-0.1-0.2-0.3-0.2c-0.2,0-0.9,0.1-1.8,0.4c-0.3,0.2-0.7,0.2-1.5,0.2c-1.9,0.8-3.3,1.2-4,1.3
			c-0.8,0.1-1.6,0.3-2.5,0.6c-0.9,0.3-1.5,0.6-1.9,0.9c-0.5,0.4-2.9,1.3-7.1,2.6c-3.6,1.1-5.8,1.8-6.7,2.2c-0.1,0.1-0.9,0.4-2.2,0.9
			c-1.1,0.3-2.7,0.8-4.6,1.7c-1.2,0.5-2.1,0.8-2.6,1c-0.5,0.1-1.1,0.2-1.8,0.1c-1.1-0.3-1.5-1.7-1.3-4.3l-0.1-0.5l0-0.5
			c0-0.2-0.1-0.3-0.2-0.4c-0.1-0.1-0.2-0.2-0.2-0.4c0-0.4,0.2-0.8,0.6-1.2c0.6-1,1.1-1.5,1.6-1.4c0.2,0,0.5,0,0.7-0.1
			c0.2-0.1,0.4-0.2,0.4-0.3c0.4-0.4,4.8-1.9,13.1-4.5c6.9-2.1,13.5-3.8,19.7-5.1c1.3-0.3,2.4-0.5,3.2-0.8c0.2,0,0.4-0.1,0.5-0.1
			c0.1,0,0.2,0,0.4-0.1c0.1,0,0.3-0.1,0.5-0.2c0.2-0.1,0.5-0.7,0.9-1.8c0.2-0.6,0.9-2.9,2-6.8c0.2-0.6,0.4-1.3,0.6-2l3.1-10.7
			c0-0.3,0-0.5,0-0.7c0-0.5,0.1-0.8,0.3-1.1c0.2-0.3,0.3-0.4,0.3-0.6l-0.1-0.4c0-0.2,0-0.3,0.2-0.5c0.2-0.1,0.2-0.3,0.3-0.4
			l-0.1-0.2c0-0.1,0.1-0.2,0.2-0.3c0.1-0.1,0.8-0.1,1.9-0.1l0.9,0c1.3,0.1,3,0.9,5.1,2.4c0.8,0.7,1.2,1.7,1,3.2c0,0.7-0.2,1.3-0.5,2
			l-0.7,2.8c-0.3,1.3-0.6,2.3-0.8,3c-0.9,2.1-1.6,4.5-2.3,7.1c-0.4,1.3-0.6,2.2-0.6,2.6c0,0.3,0,0.5,0.1,0.5c0.1,0,0.2,0,0.2,0
			l2.2-0.1c0.1,0,0.2,0,0.2,0.1l0.1,0l-0.4,0.2c-0.3,0.1-1.2,0.3-2.7,0.5c-0.2,0.5-0.3,1-0.5,1.5c-0.2,0.5-0.3,1-0.3,1.5
			c0.4,0,0.9,0,1.7-0.1c3-0.5,6-0.8,9.1-1.1l5.9-0.6c1.3,0,2.9-0.2,4.9-0.4s3.3-0.4,4-0.3c0.4,0,0.5,0.1,0.5,0.2
			c0,0.1-0.2,0.1-0.6,0.2c-0.4,0.1-0.9,0.1-1.5,0.1c-1.6,0.1-6.8,0.6-15.6,1.5l-3.3,0.4c-2.3,0.3-3.7,0.5-4.5,0.7
			c-0.7,0.2-1.2,0.5-1.3,0.8c0,0.2,0,0.3,0.1,0.5c0,0.2,0.1,0.2,0.2,0.2c0.2,0,0.3-0.1,0.3-0.3s0.5-0.3,1.6-0.3
			c0.3,0,0.5,0.1,0.6,0.1c0.1,0.1,0.3,0.1,0.4,0.1c0.2,0,0.4,0,0.7-0.1c0.3-0.1,1.6-0.2,3.7-0.3c0.6-0.1,0.9-0.3,0.9-0.4
			c0.1-0.1,0.4-0.2,1-0.1l0.6,0.1c0.3,0,0.5,0,0.5-0.2c0-0.2,0.1-0.2,0.2-0.2l0.2,0c0.1,0,0.1,0,0.2,0c0.1,0,0.1,0,0.1-0.1
			c0-0.1,0.2-0.1,0.5-0.1c0.3,0,0.5,0,0.7,0c0.2,0,0.4,0.1,0.6,0.1c1.1,0.1,1.6,0,1.6-0.1c0-0.1,0.3-0.2,1-0.2c0.6,0,1.1,0,1.3-0.1
			c0.2-0.1,0.4-0.2,0.4-0.2s0.1,0,0.1,0.1l-0.2,0.2c-0.2,0.2-0.4,0.3-0.6,0.4c-0.2,0.1-0.4,0.2-0.5,0.1l-0.3,0.1
			c0,0.1,0.4,0.1,1.3,0.2c0.9,0.1,1.4-0.1,1.4-0.4c0-0.1-0.1-0.2-0.2-0.4c-0.2-0.1-0.3-0.2-0.3-0.3c0-0.1,0.1-0.1,0.2-0.1
			c0.2,0,0.3,0,0.5-0.1c0.2,0,0.4,0,0.6-0.1l0.7,0c0.2,0,0.3,0.2,0.3,0.5c0,0.3,0,0.5,0.1,0.5s0.2,0,0.3,0l1.3-0.1l1,0.1l0.1-0.1
			c0-0.1,0-0.1-0.1-0.2c-0.1-0.1-0.5-0.1-1.2-0.2c-0.7,0-1-0.2-1-0.4c0-0.1,0.1-0.2,0.4-0.2l1.1,0.2c1,0.1,1.5,0,1.6-0.3
			c0.1-0.2,0.6-0.3,1.6-0.3l1.3,0.2c1.7,0.1,2.7,0.1,2.8,0l0-0.1c0-0.1-0.2-0.2-0.6-0.3c-0.1,0-0.1,0-0.1-0.1l1.4-0.1l1.4,0
			c0.4,0,0.7,0.1,0.8,0.2c0.1,0.1,0.5,0.2,1.1,0.2c0.7,0,1,0,1.1-0.2c0.1-0.2,0.2-0.3,0.3-0.3c0.1-0.1,0.3-0.1,0.5-0.1
			c0.1,0,0.1,0.1,0.1,0.2l0,0.1c0,0.1,0.1,0.2,0.3,0.2c0.2,0,0.5,0,0.9-0.2c0.4-0.1,0.7-0.2,0.9-0.3c0.2,0,0.3-0.1,0.4-0.1
			c0.1,0,0.2,0,0.3,0.1c0.1,0.1,0.1,0.2,0.2,0.3c0.1,0.2,0.2,0.2,0.3,0.2c0.1,0,0.3-0.1,0.5-0.3c0.2-0.2,0.4-0.3,0.5-0.3
			c0.1,0,0.2,0,0.3,0.1c0.1,0.1,0.3,0.1,0.6,0.1c0.2,0,0.6,0,1,0c0.4,0,1.2,0,2.3,0.1c0.5,0,1.1,0,1.7,0l1.8,0.2
			c1.2,0.1,2.2,0.1,3,0.2c0.8,0,1.2,0,1.2-0.1c-0.1-0.1-0.5-0.3-1.1-0.4c-0.6-0.2-1.4-0.3-2.3-0.5c-0.9-0.2-1.7-0.3-2.4-0.4
			c-0.7-0.1-1.2-0.2-1.6-0.2c-0.4-0.1-0.6-0.2-0.6-0.2c0-0.1,0.3-0.1,1,0l1.1,0c0.4,0,1,0.1,1.7,0.2c0.7,0.1,1.4,0.2,2.3,0.4
			c0.8,0.1,1.5,0.3,2,0.5c0.5,0.2,0.8,0.2,1.1,0.3c0.2,0,0.3,0,0.3-0.1c0-0.2-0.2-0.5-0.8-0.9c-1.5-1.1-4.7-1.9-9.7-2.2l-4.1-0.4
			c0-0.1-1.6-0.2-4.9-0.4c0-0.1,0.9-0.1,2.7-0.2c1.8-0.1,2.7-0.1,2.7-0.2l-1.9-0.3l1.5-0.2c0.3,0,0.5,0.1,0.7,0.3
			c0.1,0.2,0.2,0.3,0.3,0.3l0.1,0l0-0.4c0-0.1,0.1-0.2,0.2-0.3c0.1-0.1,0.7-0.1,1.7,0c0.5,0.1,1.3,0.2,2.2,0.2
			c2.6,0.3,4,0.5,4.2,0.7c0.1,0.2,0.2,0.3,0.3,0.3c0.1,0,0.1,0,0.1-0.1c0-0.1,0.2-0.1,0.4-0.1c0.7,0,1.9,0.5,3.6,1.4
			c1.7,0.9,2.6,1.6,2.7,2.2c0,0.3-0.1,0.5-0.2,0.6c-0.1,0.1-0.2,0.2-0.2,0.3c0,0.3,0.1,0.8,0.5,1.5c0.3,0.7,0.5,1.5,0.5,2.3
			c-0.1,0.8-0.3,1.3-0.6,1.7c-0.4,0.3-1,0.5-1.8,0.4c-0.6,0-1.4,0.1-2.3,0.4c-0.5,0.1-0.9,0.2-1.2,0.2c-0.5,0-0.8-0.4-0.7-1l0-0.1
			c0-0.3,0-0.5-0.1-0.6c-0.2,0-0.4,0.1-0.5,0.2c-0.2,0.2-0.6,0.2-1.3,0.2c-0.3,0-0.6-0.1-0.9-0.2c-0.3-0.1-0.5-0.3-0.5-0.5
			c0-0.2,0.4-0.4,1-0.5c1-0.1,1.6-0.2,1.8-0.3c0.2-0.1,0.6-0.4,1.2-1.1l-0.9,0.1c-0.3,0-0.5-0.1-0.6-0.2c-0.1-0.1-1.2-0.2-3.2-0.4
			c-2-0.1-3.1-0.2-3.2-0.3c-0.1-0.1-0.6-0.1-1.5-0.2c-0.9-0.1-2-0.1-3.4-0.1c-1.6,0.1-3.1,0.1-4.5,0c-4.2,0-7.4,0.1-9.7,0.3
			l-4.3,0.3c-0.8,0-1.9,0.1-3.5,0.2c-4.1,0.4-6.4,0.6-6.7,0.8c-0.3,0.1-1.6,0.3-3.9,0.4c-2.8,0.4-4.4,0.7-4.8,1
			c-0.4,0.3-1.3,3-2.6,8.2l-1.3,5.2c-0.3,1.4-0.8,3.7-1.4,6.8c-0.4,1.3-0.7,2.4-0.9,3.4c-0.2,1-0.4,1.9-0.5,2.7
			c-0.2,0.9-0.3,1.5-0.3,1.8c0,0.3-0.1,0.6-0.2,0.8l-0.4,1.8c-0.1,1-0.3,2-0.6,3c-0.2,0.8-0.2,1.3-0.2,1.7l0,0.3
			c0,0.5-0.2,1-0.4,1.5c-0.2,1-0.7,4.5-1.4,10.5c-0.4,3.7-0.7,7-0.9,9.9c-0.1,0.9-0.2,1.4-0.3,1.5c-0.1,0.1-0.2,0.9-0.4,2.2
			c-0.5,4.3-0.8,7.8-1,10.4l-0.3,2.6l-0.3,6.6c-0.1,2.9-0.2,5.7-0.4,8.4l0,0.8c-0.2,3-0.1,6.6,0.4,10.7c0,0.7,0,1.3,0.1,1.6
			c0,0.3,0,0.7,0,1c-0.1,0.1-0.2,0.2-0.4,0.2c-0.2,0-0.6,0-1.2,0.1c-1.5,0.3-2.6,0.6-3.1,0.9L959.3,680.6z M938.8,581
			c0.9-0.1,2.4-0.5,4.7-1.1l3.9-1.1c2-0.5,3.2-0.8,3.5-0.9c0.3-0.1,0.6-0.2,0.9-0.3c0.7-0.4,1.4-0.6,2.1-0.7
			c0.7-0.1,2.8-0.5,6.2-1.3l4.9-1.2c0.3-0.2,0.8-0.3,1.4-0.4c1-0.2,1.5-0.7,1.6-1.5l0-0.2l0.5-1.6c-0.1-0.1-0.2-0.1-0.4-0.1l-1,0.2
			c-0.9,0.2-1.5,0.4-1.8,0.5c-0.4,0.2-0.8,0.2-1.3,0.3c-0.5,0-1.4,0.2-2.8,0.5c-4.2,1-7,1.7-8.6,2.2c-0.9,0.3-1.3,0.5-1.3,0.5
			c0.1,0,0.1,0,0.1,0.1l-0.2,0.4c-0.1,0-0.1-0.1-0.2-0.2c-0.1-0.2-0.2-0.2-0.4-0.3c-0.3,0-0.8,0.1-1.4,0.3c-0.9,0.4-1.3,0.6-1.3,0.8
			c0,0.1-0.1,0.2-0.2,0.3c-0.1,0.1-0.3,0.2-0.4,0.2c-0.1,0-0.2,0-0.2-0.1l0.1-0.4c0-0.1,0-0.2-0.2-0.2l-0.3,0.1
			c-0.4,0.1-0.6,0.3-0.6,0.6c0,0.3-0.5,0.6-1.5,0.9c-1,0.3-1.6,0.6-1.8,0.8c-0.2,0.2-0.3,0.3-0.4,0.3c-0.1,0-0.1-0.1-0.1-0.1
			c0-0.1,0-0.1-0.2-0.1c-0.4,0-1,0.3-1.9,0.9c-0.5,0.4-1,0.8-1.6,1s-0.8,0.4-0.8,0.5c0,0.1,0,0.1,0.1,0.2c0.1,0.1,0.2,0.2,0.4,0.2
			L938.8,581z M944.3,580.6c1.1,0,2.1,0,2.8-0.1l0.5-0.1c1-0.1,2-0.4,3-0.8c0.5-0.2,0.8-0.4,0.8-0.5c0-0.1,0.5-0.2,1.5-0.3
			c0.8,0.1,1.4,0,1.6-0.2c0.2-0.2,0.6-0.3,1.1-0.2c0.6,0,0.9,0,1.1-0.2c0.2-0.2,0.4-0.4,0.8-0.5c0.7-0.2,1.2-0.3,1.5-0.3
			c0.2,0,0.3,0.1,0.5,0.1c0.1,0.1,0.4,0.1,0.7,0.1c0.2,0,0.5,0,0.7-0.1c0.2-0.1,0.3-0.2,0.3-0.3c0-0.1,0.1-0.2,0.3-0.4
			c0.2-0.1,0.5-0.3,0.9-0.4c0.4-0.1,0.7-0.2,0.9-0.2c0.2,0,0.3,0.1,0.4,0.2c0.1,0.1,0.2,0.2,0.3,0.2c0.1,0,0.3-0.1,0.5-0.3
			c0.2-0.2,0.5-0.3,0.9-0.3c0.4,0,0.8-0.1,1.3-0.4c0.4-0.3,0.7-0.6,0.7-0.8c0-0.1,0-0.1,0-0.2c0-0.1-0.1-0.1-0.2-0.1l-7.3,1.7
			c-4.2,0.9-6.7,1.5-7.3,1.8l-0.7,0.3l-3.6,1L944.3,580.6z M955.1,581.6c-0.2,0-0.4-0.1-0.4-0.1l0.2-0.2c0.1-0.1,0.2-0.1,0.5-0.1
			c0.1,0,0.2,0,0.2,0.1C955.5,581.5,955.4,581.6,955.1,581.6z M956.8,676.5c0.2,0,0.4-0.6,0.5-1.9l0.1-2.2l0.1-7.8l0.1-3.9
			c0.1-2.9,0.3-6.5,0.6-10.8c0.1-1.4,0.2-3.3,0.4-5.7c0.2-2.4,0.3-4.8,0.5-7.3c0.2-2.5,0.3-4,0.4-4.5c0.3-1.6,0.5-4,0.8-7.1
			c0.6-5.9,1.3-10.9,2.2-15.2l0.6-2.8c0.6-3.2,0.9-5.1,0.9-6c0.1-0.8,0.2-1.6,0.4-2.3l0.4-1.8c0.2-1.2,0.5-2.5,0.8-3.8
			c0.5-2.2,0.7-3.5,0.7-3.8c0-0.2,0-0.3-0.1-0.3l-0.1,0c-0.1,0.1-0.2,0.2-0.3,0.6c-0.1,0.3-0.2,0.7-0.3,1.1
			c-0.1,0.4-0.2,0.9-0.3,1.4c-0.1,0.5-0.2,0.9-0.4,1.2c-0.1,0.3-0.2,0.8-0.4,1.6s-0.3,1.4-0.4,2.1c-0.1,0.7-0.3,1.3-0.4,1.8
			c-0.2,0.5-0.3,0.8-0.3,0.8c-0.1,0-0.1,0.1-0.1,0.1l0.1,1.3c0,0.2-0.1,0.3-0.2,0.3c-0.1,0-0.2,0.2-0.2,0.5l0,0.8
			c0,0.1,0,0.3-0.1,0.4c0,0.2-0.1,0.3-0.2,0.3c-0.1,0-0.1,0.2-0.2,0.4c-0.1,0.3-0.1,0.5-0.2,0.8c-0.1,0.3-0.1,0.6-0.1,0.9
			c0,0.2,0,0.4,0.1,0.4c0.1,0,0.1,0.1,0.1,0.2c0,0.1-0.1,0.1-0.1,0.2s-0.2,0.3-0.2,0.6l-0.4,1.6c-0.3,1.4-0.5,2.8-0.7,4.2
			c-0.5,2.4-1,5.4-1.4,9l-0.4,3.6c-0.6,4.7-1.2,12.1-1.9,22.2c-0.8,11.3-1.1,17.5-1.1,18.6l0.1,2c0.1,2.7,0.1,4.7,0.2,6.1
			C956.4,675.8,956.6,676.5,956.8,676.5z M956.8,573.8C956.7,573.8,956.7,573.8,956.8,573.8c-0.1-0.2,0-0.2,0.2-0.3
			c0.2-0.1,0.3-0.1,0.4-0.1c0.1,0,0.2,0,0.2,0.1l-0.2,0.2C957.2,573.8,957,573.9,956.8,573.8z M958.7,676.6c0.1,0,0.1-0.2,0.1-0.6
			l0.1-9.2l-0.1-4.4c0.1-4,0.4-10.4,1-19.3c0.6-9.2,0.9-13.9,0.9-14c-0.1,0.3-0.3,1.9-0.5,4.9c-0.6,6.1-1,11.5-1.4,16.2
			c-0.4,6.3-0.6,9.6-0.6,10.1c0.1,0.2,0.1,2,0,5.5c-0.1,2.2-0.1,4.6,0,7.4c0.2,0.9,0.3,1.8,0.3,2.6
			C958.5,676.4,958.6,676.6,958.7,676.6z M961,628.7c0.2-0.2,0.3-1.1,0.5-2.7l0.1-2.4c-0.1,0.1-0.2,0.3-0.3,0.9
			c-0.1,0.5-0.1,1.1-0.2,1.8c-0.1,0.7-0.1,1.2-0.2,1.7C960.8,628.4,960.8,628.6,961,628.7z M961.6,623.2c0.2-0.3,0.3-0.7,0.3-1
			c0-0.4,0-0.6,0-0.6c-0.1,0-0.2,0.2-0.3,0.5c-0.1,0.4-0.2,0.6-0.2,0.8C961.3,623.1,961.4,623.2,961.6,623.2L961.6,623.2z
			 M966.1,588.8c0.1,0,0.1-0.1,0.2-0.2c0.1-0.1,0.1-0.3,0.2-0.4c0.1-0.1,0.1-0.2,0.1-0.3c0-0.2,0-0.3-0.2-0.4
			c-0.2,0-0.4,0.3-0.4,0.9C966,588.6,966,588.8,966.1,588.8z M966.4,587c0.1,0,0.1,0,0.2-0.2c0.1-0.1,0.2-0.4,0.3-0.9
			c0.1-0.5,0.3-1.1,0.4-1.7l0.5-2.6c0-0.3,0-0.5-0.1-0.5c-0.3,0-0.6,0.9-0.8,2.8c-0.1,0.4-0.3,0.8-0.4,1.2c-0.1,0.4-0.2,0.7-0.3,0.9
			c-0.1,0.2-0.2,0.4-0.2,0.5C966.2,586.9,966.3,587,966.4,587z M968,580.7c0.1,0,0.2-0.1,0.3-0.3c0.2-0.2,0.3-0.5,0.3-1
			c0-0.3,0-0.5-0.2-0.5c-0.1,0-0.2,0.2-0.4,0.6c-0.2,0.4-0.2,0.7-0.2,0.8C967.9,580.4,967.9,580.5,968,580.7
			C967.9,580.6,967.9,580.7,968,580.7z M969.9,574.8c0.2-0.2,0.3-0.3,0.3-0.4c0-0.1,0-0.1,0-0.1s-0.1-0.1-0.1-0.1l-0.2,0.2
			c-0.1,0.1-0.2,0.2-0.2,0.3c0,0.1,0,0.1,0.1,0.1L969.9,574.8L969.9,574.8z"/>
		<path class="st0" d="M1023.3,710c-0.8-0.1-1.6-0.3-2.5-0.7c-1.6-0.7-3.2-1.8-4.7-3.1c-1.5-1.4-2.6-2.8-3.3-4.3
			c-0.7-1.7-1.4-4.8-1.9-9.1c-0.5-4.4-0.8-9-0.9-14c0-2,0-3.5,0-4.6c-0.1-2-0.3-3.1-0.6-3.3c-0.3-0.2-0.7-0.4-1-0.5
			c-1-0.2-2.1-0.6-3.3-1.3c-1.3-0.6-1.9-0.9-1.9-0.9c0-0.2,0.7-1,2-2.4c1.4-1.5,2.3-2.3,2.6-2.3c0.3,0,0.8-0.4,1.4-1.2
			c0.6-0.8,1.2-1.6,1.7-2.6c0.5-1,0.8-1.8,0.9-2.4c0.7-5.1,1.5-10.1,2.5-14.9c0.5-2.7,0.8-4.4,0.8-5.1l0-2.1c0.1-1.1,0.3-2,0.6-2.6
			c0.3-0.7,0.6-1.7,0.9-3.2c0.2-1.5,1.7-7.4,4.5-17.7l0.5-2.4c0.7-3,1.4-5.5,2-7.3c0.3-0.5,0.6-1.8,0.9-3.9c0.3-3.9,1-6.2,2.1-7
			c0.3-0.3,0.5-0.5,0.5-0.7c0-0.1-0.1-0.1-0.4-0.1c-0.2,0-0.3-0.5-0.3-1.5c0-0.7,0.2-1.5,0.5-2.4c0.3-0.9,0.7-2,1.2-3.1
			s1.1-1.9,1.6-2.2c0.5-0.4,1.4-0.6,2.6-0.6l1.5-0.1c0.4,0,0.9,0.1,1.4,0.3c0.5,0.2,1.1,0.5,1.7,1c0.6,0.5,1.2,1,1.8,1.5
			c-2.9,7.1-4.8,11.9-5.6,14.3c-0.8,2.4-1.8,5.7-2.8,9.8c-1,4.1-2.6,10.6-4.6,19.3c-0.1,0.4-0.7,2.9-1.7,7.5c-0.3,1.1-0.6,3-1,5.8
			l-0.7,2.9c0,0.3-0.1,0.5-0.1,0.7l-0.5,3.4c0,0.3,0,0.5,0.1,0.5c0.1,0,1-0.7,2.7-2c2.7-2.2,5.9-4.2,9.5-6c3.6-1.8,6.6-3,9-3.5
			c0.9-0.2,1.8-0.5,2.5-1.1c0.4-0.3,0.7-0.5,0.8-0.5c0.1,0,0.1,0.1,0.1,0.1c0,0.1,0.1,0.1,0.1,0.1c0.2,0,0.4-0.1,0.8-0.4
			c0.4-0.3,0.7-0.5,1.1-0.4l0.3,0.2c0.4,0,1.1-0.3,2-0.9c1.1-0.7,2.5-1,4.2-0.9c1.7,0.1,3.3,0.5,4.7,1.2c1.4,0.7,2.1,1.5,2.2,2.5
			c0,0.4-0.4,0.5-1.1,0.5l-1.3-0.2c-0.5,0-0.8,0.2-0.9,0.8l0,0.6c0,0.5-0.2,0.9-0.6,1c-0.4,0-0.6-0.7-0.6-1.9c0-1.2-0.4-1.9-1.1-1.9
			c-0.9-0.1-3.7,1-8.5,3c-9.5,4.1-15.8,8-19.1,11.9c-0.9,1-1.7,1.8-2.4,2.5c-0.7,0.6-1.1,0.9-1.3,0.9l-0.2,0c-0.5,0-0.9,0.4-1.2,1.2
			c-0.7,1.2-1.3,2-1.7,2.5c-0.5,0.4-0.7,0.8-0.7,1.1c0,0.2,1.4,0.4,4.2,0.6l0.5,0c4.4,0.3,7.5,1.4,9.3,3.2c1.8,1.8,2.9,5.1,3.3,9.8
			c0.3,2.7,0.3,5.5,0.2,8.4c-0.3,4.5-1.2,9.1-2.8,13.9C1032.3,704.8,1028.1,710.3,1023.3,710z M1013.7,655.8c0.2,0,0.3-0.2,0.3-0.5
			c0.1-1,0-1.5-0.3-1.6c-0.1,0-0.1,0.2-0.1,0.5C1013.5,655.2,1013.6,655.8,1013.7,655.8z M1017.1,633.1c0.1,0,0.2-0.2,0.5-0.6
			c0.3-0.4,0.5-1,0.5-1.6c0-0.5,0-0.7-0.1-0.7c-0.1,0-0.3,0.3-0.5,0.8c-0.3,0.8-0.5,1.4-0.5,1.8C1017,632.9,1017,633.1,1017.1,633.1
			z M1021.8,703.7c0.1,0,0.3-0.1,0.5-0.2c0.2-0.1,0.4-0.2,0.6-0.3c0.2,0,0.3-0.1,0.5-0.1l0.3,0.1c0.1,0,0.4-0.2,0.8-0.7
			c0.4-0.5,0.9-1.1,1.4-1.9c0.9-1.4,1.7-2.4,2.2-3.1c0.5-0.7,0.8-1.1,1-1.2c0.2-0.1,0.3-0.2,0.5-0.2c0.1,0,0.2,0,0.3,0.1
			c0.5,0,1.1-1,2-3.2c0.8-2.1,1.6-4.7,2.3-7.7c0.6-2.5,1-3.7,1.2-3.7c0.1,0,0.2,0.4,0.1,1.3c-0.1,1.7-0.6,3.9-1.3,6.5
			c-0.5,1.7-0.9,2.9-1.3,3.8c-0.4,1.2-0.7,1.9-0.7,2c0,0.1,0,0.2,0.1,0.3l0.1,0c0.2,0,0.5-0.5,0.9-1.4c1-2.1,2-4.9,2.8-8.5
			c0.6-3.2,1-6,1.2-8.4c0.1-1.8,0.1-2.7-0.1-2.7l-0.1,0.2c-0.1,0.1-0.2,0.3-0.3,0.6c-0.1,0.3-0.1,0.9-0.2,1.8l-0.1,1.2
			c-0.1,1.3-0.3,1.9-0.5,2c-0.3-0.1-0.5-2.7-0.8-7.6c-0.1-7.8-1.4-11.8-3.9-12l-0.8-0.1c-0.4,0-0.5,0.1-0.6,0.2
			c0,0.2,0.3,0.7,0.9,1.3c0.3,0.4,0.7,1,1.1,1.8c0.4,0.8,0.8,1.6,1.1,2.5c0.3,0.8,0.5,1.5,0.5,2c0,0.2-0.1,0.3-0.2,0.3l-0.5,0
			c-0.2-0.1-0.4-0.4-0.5-0.7c-0.1-0.3-0.2-0.7-0.2-1.1c0-1.1-0.5-2.4-1.3-3.6c-0.8-1.3-1.7-1.9-2.7-2c-1.3-0.1-3,0.3-5,1.2
			c-1.2,0.5-2.1,0.9-2.7,1.2c-0.5,0.3-0.9,0.8-1.1,1.3c-0.4,0.8-0.6,2.3-0.8,4.6c-0.1,2.1-0.2,5.2,0,9.3c0.1,4.1,0.4,8.4,0.7,12.9
			c0.4,4.5,0.8,7.6,1.3,9.1C1021,702.8,1021.5,703.7,1021.8,703.7z M1018.3,628.3c0.1,0,0.3-0.2,0.5-0.7c0.2-0.5,0.3-0.9,0.4-1.4
			c0.1-0.4,0.1-0.8,0.2-1c0-0.3-0.1-0.5-0.2-0.5c-0.1,0-0.3,0.3-0.5,0.9c-0.2,0.6-0.4,1.4-0.4,2.3L1018.3,628.3z M1019.6,623.6
			c0.1,0,0.1-0.1,0.2-0.3c0.1-0.2,0.1-0.5,0.1-0.7c0-0.4-0.1-0.6-0.3-0.6c-0.1,0-0.2,0.3-0.2,0.9
			C1019.4,623.3,1019.5,623.6,1019.6,623.6z M1021.5,649.7c0.2,0,0.6-0.3,1.1-0.8c0.9-0.8,1.4-1.3,1.4-1.4c-0.2,0-0.7,0.2-1.5,0.7
			c-0.8,0.5-1.2,0.9-1.2,1.4C1021.4,649.6,1021.4,649.7,1021.5,649.7z M1024.3,701.2c-0.2,0-0.4-0.1-0.3-0.4c0-0.1,0.1-0.3,0.2-0.5
			c0.1-0.2,0.2-0.4,0.4-0.5c0.2-0.1,0.3-0.1,0.4-0.1c0.2,0,0.4,0.1,0.3,0.3c0,0.2-0.1,0.4-0.2,0.8
			C1024.9,701.1,1024.6,701.3,1024.3,701.2z M1024.5,649.3c0.2,0,2.3-1.5,6.2-4.5c1.3-1,1.9-1.6,1.9-1.8l0-0.1c-0.2,0-0.8,0.3-1.8,1
			c-1.8,1.1-3.3,2.3-4.5,3.5C1025.1,648.5,1024.5,649.1,1024.5,649.3z M1029.8,693.6c-0.1,0-0.1-0.1-0.1-0.4c0-0.3,0.4-2.3,1.2-5.9
			c0.9-4,1.4-7.9,1.7-11.7l0.5-6.2c-0.1,5.3-0.1,8.7-0.2,10.2c-0.4,5.6-1.2,9.9-2.6,13C1030.1,693.2,1030,693.6,1029.8,693.6z
			 M1034.9,642.3l2.2-1.1c1.4-0.7,2.1-1.2,2.1-1.4c0-0.2-0.2-0.4-0.3-0.4c-0.1,0-0.4,0.1-0.7,0.3
			C1037.7,639.8,1036.7,640.7,1034.9,642.3z M1036.3,670.2l0.1-0.4c0.1-1.3,0.1-2.2-0.1-2.6l-0.1,0l-0.1-0.2c-0.1,0-0.1,0.1-0.1,0.4
			l0,1.4C1036.1,669.7,1036.2,670.2,1036.3,670.2z"/>
		<path class="st0" d="M1060.2,666.7c-0.8-0.1-1.6-0.2-2.2-0.4c-1.5-0.8-3-2-4.6-3.6c-1.5-1.6-2.6-3.2-3.2-4.8
			c-0.6-1.6-0.9-3.3-0.7-5.3c0.1-1.6,0.5-3.4,1.2-5.4c0.7-2,1.3-3.8,2-5.2c0.6-1.4,1.2-2.3,1.5-2.6l0.9-1.5c1.1-2,2.4-3.8,4-5.5
			c1.6-1.7,2.9-2.6,3.8-2.6c0.9-0.1,1.9-0.1,2.8,0c3,0.2,5.8,1.1,8.3,2.6c3.6,2.1,5.8,4.3,6.7,6.9c0.4,0.9,0.6,1.7,0.6,2.6
			c-0.1,1-0.2,2-0.5,3c-1,4.5-2.9,8.8-5.7,12.8c-2.8,4-5.7,6.7-8.8,8C1064.4,666.6,1062.4,666.9,1060.2,666.7z M1058.7,661.3
			c0.5,0,1.5-0.3,2.9-0.8c1.6-0.7,3.2-1.6,4.6-2.8c1.5-1.2,2.6-2.4,3.3-3.6c0.7-1.2,1.1-2,1.1-2.3l0-0.2c0-0.4,0.5-1.7,1.4-3.9
			c0.5-1.1,1-2.2,1.4-3.4c0.8-2.5,1.3-4.4,1.4-5.7c0.1-1.1-0.5-2.3-1.7-3.6c-1.2-1.2-2.1-1.9-2.7-1.9c-0.2,0-0.3,0.1-0.4,0.2
			c-0.2,0.5-0.8,1.1-1.8,1.8c-0.6,0.6-1.4,1.3-2.2,2.2c-2.3,2.3-3.6,3.9-3.9,4.7c-0.4,0.8-0.9,1.6-1.5,2.3c-0.8,1.3-1.6,3-2.3,5.2
			c-1.3,3.4-2,6.3-2.1,8.8c-0.1,0.9,0,1.6,0.2,2.1c0.2,0.5,0.7,0.8,1.4,0.8L1058.7,661.3z M1071,653.9c0.2,0,0.7-0.4,1.4-1.3
			c2.2-2.9,3.7-6.6,4.4-10.9c0.2-0.8,0.3-1.5,0.3-2.1c0-0.7-0.2-1.6-0.7-2.6c-0.7-1-1.2-1.5-1.4-1.5c-0.1,0-0.1,0-0.1,0.1
			c0,0.1,0.1,0.5,0.5,1c0.2,0.3,0.3,0.6,0.4,1c0,0.3,0,0.8,0,1.3c-0.2,1.5-0.6,3.3-1.1,5.4c-0.2,1-0.9,2.5-1.9,4.5
			c-0.7,1.1-1,1.9-1.1,2.5l0,0.1c0.2,0,0.7-0.9,1.6-2.7l1.5-2.7l0,0.2c0,0.2-0.2,0.7-0.5,1.5c-0.3,0.7-0.7,1.6-1.2,2.6
			c-0.5,1-1,1.8-1.4,2.5C1071.2,653.3,1070.9,653.8,1071,653.9L1071,653.9z"/>
		<path class="st0" d="M1090.7,675.7c-0.3,0-0.6-0.1-0.8-0.2c-0.2-0.1-0.7-0.2-1.3-0.3c-0.6-0.2-1.2-0.6-1.8-1
			c-0.5-0.5-0.9-0.7-1-0.7c-0.1,0-0.3-0.2-0.6-0.5c-0.3-0.4-0.6-0.5-0.7-0.5l-0.2,0c-0.1,0-0.3-0.1-0.5-0.2c-0.6-0.5-1-1.2-1.4-2.1
			c-0.4-1-0.4-2.9-0.2-5.7c0-0.6,0.2-2,0.4-4.3c0.2-2.3,0.8-5.2,1.8-8.7c0.4-1.5,0.6-2.5,0.7-3c0-0.2,0-0.4-0.1-0.5
			c-0.1-0.1-0.1-0.2-0.1-0.3c0-0.1,0.1-0.2,0.2-0.3s0.3-0.3,0.4-0.4s0.7-2,1.8-5.6l1.9-6.7c0-0.5,0.2-0.9,0.5-1.4
			c0.3-0.4,0.5-0.9,0.5-1.3c0-0.2,0.1-0.5,0.3-1c0.5-1.5,1-2.5,1.4-3.2c0.4-0.7,0.9-1,1.4-0.9c0.2,0,0.4,0.1,0.5,0.3
			c0.2,0.2,0.4,0.3,0.8,0.3l1.6-0.1c1.3,0.1,2.5,0.7,3.6,1.9l1,1l-1.1,1.7c-0.8,1.1-1.2,2-1.3,2.8c-0.1,0.8-0.2,1.4-0.5,1.9
			s-0.5,0.9-0.5,1.3c0,0.4-0.3,1.1-0.7,2c-1.5,4.2-2.3,6.4-2.4,6.6c-0.1,0.2-0.2,0.7-0.3,1.5c-0.1,0.8-0.2,1.5-0.5,2.1
			c-0.6,1.4-1.2,3.2-1.6,5.5c-0.3,1.3-0.7,3-1.3,5.2c-0.2,1-0.5,2.7-0.6,4.9c-0.1,1.9,0,2.9,0.3,2.9c0.1,0,0.4-0.2,0.8-0.7
			c1-1,1.7-2,2.3-3c0.3-0.5,0.5-0.7,0.6-0.7c0.1,0,0.1,0.1,0.2,0.4c0.1,0.3,0.1,0.5,0.2,0.8l1.3-2.5c0.7-1.3,1.1-2,1.3-2l0.1,0.2
			c0,0.1-0.1,0.2-0.2,0.4c-0.1,0.2-0.2,0.5-0.4,0.9c-0.1,0.4-0.3,0.7-0.5,1c-0.2,0.3-0.4,0.5-0.4,0.6c-0.1,0.1-0.2,0.3-0.4,0.6
			c-0.1,0.3-0.2,0.5-0.3,0.8c-0.1,0.3-0.1,0.5-0.1,0.6l0,0.2c0.2,0,1.3-1.7,3.3-5.2c6.3-10.4,9.8-16.4,10.5-18
			c0.2-0.2,0.4-0.7,0.6-1.5c0.2-0.8,0.4-1.2,0.5-1.2s1-1.5,2.6-4.4c0.3-0.5,0.5-0.8,0.6-1c0.1-0.2,0.3-0.3,0.4-0.3l0.3,0l-0.2-0.3
			c0-0.1,0.1-0.3,0.2-0.4c0.1-0.1,0.3-0.5,0.6-1c0.2-0.5,0.4-1,0.6-1.4c0.1-0.4,0.2-0.7,0.2-0.9l0-0.2c0-0.2,0.1-0.4,0.3-0.3
			c0.2,0,0.3-0.1,0.3-0.3l-0.1-0.9l0.1-0.2l0.2,0.1c0.1,0,0.3-0.1,0.5-0.2c0.2-0.2,0.4-0.4,0.5-0.6s0.3-0.4,0.3-0.6
			c0-0.1,0-0.2-0.1-0.2l-0.2,0c-0.1,0-0.3,0.2-0.6,0.7c-0.1,0.2-0.2,0.4-0.3,0.3l0-0.3c0-0.4,0.2-0.9,0.6-1.6s0.6-1,0.7-1
			c0.1,0,0.2,0.1,0.3,0.3c0.1,0.2,0.2,0.3,0.3,0.3l0.1-0.2c0-0.7,0-1.1-0.2-1.1c-0.2,0-0.3-0.1-0.2-0.4c0-0.1,0.1-0.2,0.4-0.2l0.1,0
			c0.1,0,0.4-0.1,0.7-0.5c0.4-0.3,0.7-0.7,1.1-1.1c0.4-0.4,0.5-0.7,0.6-0.8c0-0.1,0.2-0.3,0.6-0.5c0.4-0.2,0.8-0.4,1.2-0.5
			c0.4-0.2,0.7-0.2,1-0.2c0.2,0,0.4,0.1,0.3,0.4c0,0.2-0.1,0.3-0.3,0.2c-0.2,0-0.3,0.1-0.3,0.4c0,0.2,0.1,0.4,0.3,0.4
			c0.2,0,0.4,0,0.8-0.2c0.3-0.1,0.6-0.2,0.7-0.2c0.1,0,0.2,0.1,0.3,0.3c0.1,0.2,0.3,0.3,0.7,0.3l0.6,0c0.5,0,0.9,0.3,1.2,0.8
			c0.2,0.1,0.4,0.3,0.6,0.5c0.2,0.2,0.4,0.3,0.5,0.4c0.1,0.1,0.2,0.4,0.1,0.8c-0.1,1.5-0.9,4.6-2.3,9.2c-1.6,5.3-2.5,10.5-2.9,15.6
			c-0.5,7.1,0.2,12.8,2.1,17c0.3,0.9,0.4,1.5,0.4,1.6c0,0.4,0.2,0.6,0.6,0.6c0.4,0,0.9-0.1,1.6-0.3c3.2-1.5,4.9-2.4,4.9-2.8
			c-0.1-0.1-0.1-0.2-0.1-0.3c0-0.2,0.2-0.6,0.5-1c0.3-0.4,0.5-0.6,0.6-0.6l0.2,0.1c0,0.2-0.2,0.5-0.5,0.9c-0.3,0.4-0.5,0.6-0.5,0.7
			l0,0.1c0.1,0,0.4-0.2,0.9-0.7c0.5-0.5,0.8-0.7,0.9-0.7c0,0.1-0.6,0.8-1.7,2.1c-1,1-1.5,1.6-1.5,1.8c0.1,0.1,0.1,0.1,0.3,0.1
			c0.5,0,1.5-0.5,2.9-1.6c1-0.8,1.5-1.3,1.6-1.2l0.1,0c0,0.1-0.2,0.3-0.4,0.6s-0.7,0.6-1.2,1.1c-0.5,0.5-1,0.9-1.4,1.3
			c-0.5,0.4-0.8,0.6-0.9,0.6c-0.2,0-0.2,0.1-0.2,0.1l0.5,0c0.5-0.1,1.1-0.4,1.7-0.9c2.5-2.4,3.9-3.9,4.2-4.4
			c0.3-0.5,0.5-0.8,0.8-0.8s0.7-0.3,1.2-0.9l1.1-1.5c0.4-0.3,1.4-1.6,3-3.8c0.5-0.7,1.7-2.5,3.4-5.6c1.2-2.2,1.9-3.2,2-3.2
			c0.1,0,0.2,0.1,0.2,0.3c-0.1,0.8-0.9,2.7-2.6,5.4c-0.5,0.9-0.9,1.8-1.3,2.4s-0.6,1.1-0.6,1.3c0,0.2-0.1,0.2-0.3,0.2
			c-0.2,0-0.3,0.1-0.3,0.3l0,0.1c0,0.2-0.2,0.7-0.5,1.3c-1.2,2.1-2.1,3.5-2.8,4.2l-1.3,1.7c-1.3,1.7-2,2.6-2,2.8
			c0,0.2-0.3,0.5-0.7,0.9c-0.5,0.4-0.7,0.8-0.8,1.2l0,0.1c0,0.4-0.4,0.8-1.3,1.3c-1.4,0.9-2.9,1.5-4.6,1.8c-0.8,0.1-1.2,0.2-1.4,0.3
			c-0.1,0.1-0.3,0.2-0.5,0.2c-0.3,0-0.8-0.2-1.5-0.5c-2.1-0.9-3.8-1.9-5.3-3.2c-0.6-0.5-1.2-0.9-1.6-1c-0.7-0.3-1.4-1.2-2.2-2.7
			c-0.8-1.4-1.4-3.2-1.8-5.3c-1.1-4.1-1.4-8.6-1.1-13.7l0.3-2.5c0.2-1.5,0.3-2.8,0.5-4c0.1-1.2,0.2-1.9,0.3-2.1
			c0.1-0.2,0.1-0.4,0.1-0.4l-0.1-0.1c-0.1,0-1.1,1.5-2.9,4.5l-2.7,4.4c-2.2,3.7-3.4,5.6-3.4,5.7s-0.7,1.4-2,3.7
			c-1.3,2.3-2.5,4.5-3.4,6.5l-0.7,1.3c-0.2,0.2-0.3,0.4-0.3,0.7c0,0.3-0.8,1.8-2.3,4.3l-0.4,1.1c0,0.3-0.3,0.7-0.9,1.2
			c-0.8,0.9-1.2,1.4-1.4,1.6c-0.8,0.9-2,1.6-3.3,2.1C1092.4,675.7,1091.5,675.8,1090.7,675.7z M1083.5,666.7c0.1,0,0.3-1.4,0.7-4.3
			c0.1-1.1,0.3-2.3,0.6-3.5c0.3-1.7,1.1-5,2.4-9.9l1.3-4.4l0.6-2.3l0.2-0.6c0.2-1,0.5-2.1,1-3.4c0.3-0.7,0.5-1.3,0.6-1.7
			c0-0.1,0-0.2-0.1-0.2c-0.2,0-0.5,0.7-0.9,2l-0.8,2.3c-0.8,2.3-2.1,6.6-3.9,12.8c-0.5,1.7-0.9,3.7-1.2,6.3c-0.3,2-0.5,3.6-0.6,4.8
			C1083.3,665.9,1083.4,666.6,1083.5,666.7z M1104.6,657.3c0.2-0.2,0.3-0.3,0.3-0.4c0-0.1-0.1-0.2-0.3-0.2c-0.2,0.2-0.3,0.3-0.3,0.5
			c0,0.1,0,0.1,0.1,0.1L1104.6,657.3L1104.6,657.3z M1109.8,646.4c0.1,0,0.6-0.6,1.3-1.9c0.6-1,0.9-1.7,1-2c0-0.3,0.1-0.4,0.3-0.4
			c0.2,0,0.5-0.4,1-1.3c0.5-0.9,1-1.8,1.6-2.7c0.5-0.7,1.1-1.5,1.6-2.4c0.3-0.6,0.6-1,0.9-1.3c0.2-0.3,0.5-0.8,0.8-1.7
			c0.5-1.4,0.8-2.5,0.8-3.1c0-0.3,0-0.5-0.1-0.5c-0.2,0-0.6,0.6-1,1.9c-0.9,2-2.1,4.2-3.6,6.5l-2.3,4
			C1110.6,644.1,1109.8,645.7,1109.8,646.4L1109.8,646.4z M1120.6,667.1C1120.7,667.1,1120.7,667.1,1120.6,667.1l-0.1-0.4
			c-0.7-1-1.3-2.6-1.8-4.8c-0.9-4-1.2-8.7-0.9-14.1c0.2-2.8,0.7-6.2,1.6-10.2c0.4-2,0.7-3,0.9-3c0.1,0,0.2,0.2,0.1,0.6
			c-0.1,1-0.4,3-1,6.1c-0.6,2.7-1,5.8-1.3,9.3c0,1.1,0.1,1.7,0.2,1.7c0.2-0.2,0.4-1.4,0.5-3.6c0.3-3.9,1-8.7,2.2-14.4l0.6-2.7
			c-1.4,1.5-2.2,2.7-2.5,3.4c-0.3,0.7-0.6,1.8-0.8,3.2c-0.9,4.2-1.4,7.6-1.6,10c-0.1,1.9-0.1,4,0.2,6.4c0.2,2.4,0.7,4.7,1.3,7
			C1119,664.8,1119.8,666.6,1120.6,667.1z M1118.8,656.1l0.1-0.2c0-0.4,0-0.8-0.1-1.4c-0.1-0.6-0.1-1-0.2-1.2c0-0.3-0.1-0.4-0.2-0.4
			l0,1.6C1118.6,655.6,1118.7,656.1,1118.8,656.1z M1118.8,657.4c0.1,0,0.2-0.1,0.2-0.4c0-0.3,0-0.5-0.2-0.5c-0.1,0-0.1,0.1-0.1,0.4
			C1118.7,657.2,1118.7,657.4,1118.8,657.4z M1119.1,659.2c0.2-0.1,0.4-0.2,0.4-0.3l-0.4-0.1c-0.2,0-0.3,0.1-0.3,0.3
			c0,0.1,0,0.2,0.1,0.2L1119.1,659.2L1119.1,659.2z M1119.3,628.2c0.1,0,0.2-0.1,0.2-0.3l-0.1-0.8c-0.1,0-0.1,0.2-0.1,0.6
			C1119.3,627.9,1119.3,628.1,1119.3,628.2L1119.3,628.2z M1138,663.5C1137.9,663.5,1137.9,663.5,1138,663.5c-0.1-0.2,0.1-0.5,0.4-1
			c0.6-0.5,1.1-1.1,1.6-1.7c0.5-0.6,0.8-0.9,0.9-0.9c0,0.2-0.4,0.8-1.3,1.9C1138.7,663,1138.1,663.6,1138,663.5z"/>
		<path class="st0" d="M1146.4,674.4c-0.7,0-1.2-0.2-1.4-0.6c-0.2-0.3-0.4-0.5-0.7-0.5c-0.3,0-0.9-0.3-1.9-0.8
			c-1.1-0.7-1.8-1.6-2.2-2.5l-0.7-1.5c1.3-11.6,2.8-21.1,4.3-28.7c0.7-3.6,1.2-5.8,1.5-6.7l0.1-0.7c0-0.2-0.1-0.4-0.1-0.5
			c-0.1-0.2-0.1-0.3-0.1-0.4c0-0.2,0.1-0.4,0.1-0.4c0.1,0,0.2,0.1,0.3,0.2c0.1,0.2,0.2,0.2,0.3,0.2l-0.1-0.9c0-0.2,0.2-0.5,0.4-0.7
			c0.3-0.2,0.8-0.4,1.7-0.6c0.9-0.2,1.6-0.3,2.1-0.2c0.6,0,1,0.2,1.1,0.3c0.1,0.2,0.3,0.3,0.5,0.4c0.2,0.1,0.4,0.1,0.7,0.1
			c0.2,0,0.4,0.1,0.6,0.3c0.2,0.2,0.3,0.5,0.5,0.9c0.2,0.4,0.3,0.8,0.3,1.2c0,0.4-0.1,1-0.3,1.8c-0.6,2.9-0.9,4.6-1,5l-0.6,4.1
			c-0.3,1.4-0.4,2.4-0.5,3l0.1,0.8c0.1,0,0.2-0.2,0.2-0.7c0-0.5,0.3-0.9,0.8-1.4c0.5-0.4,0.8-0.9,1-1.3c0.2-0.5,0.4-0.8,0.7-0.9
			c0.3-0.1,0.4-0.3,0.5-0.7c0-0.4,0.1-0.5,0.3-0.5l0.3,0l0.2-0.3c0.5-0.7,1.3-1.5,2.4-2.5c1.4-1.3,2.3-1.9,2.8-1.9
			c0.5,0,1.2,0,2.1-0.1c0.4-0.1,0.6-0.1,0.8-0.1c0.2,0,0.3,0.1,0.3,0.2c0,0.1,0.2,0.1,0.4,0.2l0.9,0.1l0.5-0.1
			c2.2,0.1,3.9,1.3,5.1,3.6c0.3,0.7,0.6,2.6,0.9,5.6c0.3,3,0.5,6.1,0.6,9.4c0,2.4,0.1,4.2,0.3,5.5c0.2,1.2,0.5,2.5,1.1,3.8
			s1,2,1.4,2c0.5,0,1.2-0.2,2.2-0.7c1-0.5,1.9-1,2.7-1.6c0.8-0.6,1.2-1,1.2-1.3l0-0.5c0.1-0.1,0.2-0.2,0.3-0.3
			c0.2-0.1,0.3-0.2,0.5-0.5c0.6-0.6,0.9-1,1-1c0.1-0.1,0.2-0.1,0.5-0.2c0.2,0,0.4-0.2,0.4-0.4c0-0.2,0.1-0.4,0.2-0.5
			c0.1-0.1,0.2-0.2,0.2-0.2s0.2-0.1,0.3-0.2c0.1-0.1,0.2-0.3,0.3-0.4c0.1-0.1,0.2-0.2,0.3-0.2c0.1,0.1,0.2,0.2,0.3,0.3
			c0.1,0.1,0.1,0.2,0.1,0.3l-0.4,0.6c0.1,0,0.3-0.1,0.8-0.4c0.5-0.2,0.8-0.4,1.1-0.3c0.3,0,0.4,0.2,0.4,0.5c0,0.2-0.1,0.4-0.2,0.6
			c-0.1,0.2-0.2,0.4-0.2,0.5c0,0.1,0.1,0.2,0.2,0.2c0.1,0,0.2,0.3,0.2,0.8c-0.1,1.3-0.4,2.4-0.9,3.3c-2,3.5-4,5.4-5.9,5.7
			c-1.1,0.2-2.2,0.2-3.2,0.1c-1.5-0.1-2.9-0.5-4.2-1.1c-1.3-0.6-2.2-1.2-2.7-1.7c-0.5-0.5-1-0.8-1.3-0.9c-0.3-0.1-0.7-0.4-1.2-0.9
			c-0.5-0.5-1-1.2-1.5-2c-1.1-1.8-2-5.2-2.5-10.2c-0.1-1.5-0.2-3.1-0.2-4.6c0-2.9-0.2-5.1-0.5-6.6c0-0.2-0.1-0.4-0.1-0.5
			c0-0.2,0-0.2-0.2-0.2c-0.3,0-1,0.7-2,2c-1.3,1.7-3,4.3-5,7.6c-1,1.7-1.6,2.8-1.9,3.3c-0.2,0.5-0.6,1.3-1.1,2.4
			c-0.5,1.1-1,2.1-1.5,3l-0.9,2.2c-0.2,0.8-0.5,1.8-1.1,3.1c-0.5,1.3-0.9,2.9-1,4.9c0,0.7,0,1.2,0.1,1.6c0,0.5-0.3,0.9-0.8,1.2
			C1147.6,674.4,1147,674.5,1146.4,674.4z M1143,661.2l0.2-0.3c0.1-0.2,0.2-0.4,0.2-0.5c0-0.2,0-0.4-0.1-0.5
			c-0.1-0.1-0.2-0.1-0.2-0.2s-0.1,0.1-0.1,0.4C1142.9,660.8,1142.9,661.2,1143,661.2z M1143.3,659.3c0.2,0,0.3-0.1,0.3-0.4
			c0-0.3-0.1-0.5-0.2-0.5c-0.2,0-0.4,0.1-0.4,0.4C1143,659.1,1143.1,659.3,1143.3,659.3z M1143.6,657.5c0.2,0,0.3-0.2,0.3-0.7
			c0-0.5,0-0.7-0.2-0.7c-0.1,0-0.2,0.2-0.2,0.7C1143.5,657.2,1143.5,657.5,1143.6,657.5z M1143.9,655.4c0.1,0,0.2-0.2,0.2-0.5
			c0-0.1,0-0.2-0.1-0.3c-0.1,0-0.2,0.1-0.2,0.4C1143.9,655.3,1143.9,655.4,1143.9,655.4z M1144.1,653.4c0.1,0,0.1-0.1,0.1-0.2
			c0-0.1,0.1-0.3,0.2-0.4c0.1-0.1,0.1-0.3,0.1-0.4c0-0.3,0-0.5-0.2-0.5c-0.2,0-0.3,0.3-0.3,0.8L1144.1,653.4z M1144.5,651.6l0.2-0.4
			c0-0.2,0-0.3-0.2-0.3L1144.5,651.6z M1144.7,650L1144.7,650c0.1-0.8,0.1-1.2,0.1-1.3c-0.1,0-0.1,0.2-0.1,0.6
			C1144.6,649.7,1144.6,650,1144.7,650z M1150.9,650.1c0.1,0,0.2-0.1,0.4-0.2c0.2-0.2,0.5-0.6,0.9-1.2c0.4-0.6,0.6-0.9,0.8-0.9
			c0.2,0,0.4-0.2,0.7-0.6c0.3-0.6,0.6-1.1,0.9-1.4c0.3-0.3,0.4-0.5,0.5-0.6l-0.1-0.1c0-0.2,0.1-0.4,0.3-0.4c0.2,0,0.3-0.2,0.3-0.3
			l-0.1-0.5c0-0.1,0.1-0.2,0.3-0.2l0.1,0c0.2,0,0.4-0.1,0.4-0.4c0-0.3,0.3-0.6,0.8-1c0.5-0.4,0.8-0.7,0.8-0.9l0-0.1
			c0-0.3,0.3-0.7,0.9-1.3c0.6-0.6,0.9-0.9,0.9-1l-0.1,0c-0.2,0-0.6,0.4-1.3,1.1s-1.5,1.6-2.4,2.6c-0.9,1-1.5,1.9-2,2.7
			c-0.5,0.8-1,1.5-1.4,2.2c-0.4,0.7-0.8,1.2-1.1,1.6C1151.1,649.6,1150.9,650,1150.9,650.1z M1166.6,657l0.2-1.3
			c-0.1-0.9-0.1-1.4-0.3-1.4c-0.1,0-0.2,0.1-0.1,0.4l0,0.3c0.1,0.4,0.1,0.8,0.1,1.3C1166.4,656.7,1166.4,657,1166.6,657z
			 M1166.7,658.4c0.1,0,0.1-0.1,0.1-0.2c0-0.1,0.1-0.2,0.1-0.4c0-0.1,0-0.2,0-0.2c0,0-0.1,0-0.1-0.1L1166.7,658.4z M1183.6,664.6
			l0.3-0.3c0.5-0.5,0.9-1.1,1.4-1.8c0.5-0.8,0.7-1.2,0.7-1.4c0-0.1,0-0.1-0.1-0.1l-0.8,1.1c-0.6,1-1,1.7-1.2,1.9
			C1183.7,664.2,1183.6,664.4,1183.6,664.6L1183.6,664.6z"/>
		<path class="st0" d="M1223.9,682.4l-0.2,0c-0.5,0-1.3-0.2-2.5-0.6c-1.2-0.4-2.6-1.2-4.3-2.7c-1.7-1.4-3.3-3.7-4.9-6.9
			c-0.5-1.2-0.9-2.3-1.1-3.2l-0.7-1.9l-2.9,3.7c-0.9,1.3-2.1,2.6-3.6,4c-1.5,1.3-2.8,2.2-3.9,2.7c-0.6,0.1-1.3,0.2-2.4,0.1
			c-1-0.1-1.9-0.2-2.7-0.5c-2.6-1.2-5-2.9-7.1-5c-0.6-0.5-1-1.2-1.4-2c-0.3-0.8-0.6-1.7-0.7-2.5c0-0.7,0-1-0.2-1
			c-0.1,0-0.1-1.4,0.1-4.1c0.2-2.4,0.4-4.1,0.6-5.2l1.7-5.4c1-3.1,1.8-5.1,2.5-6.1c1.1-1.6,1.8-2.9,2.2-3.7c0.4-0.9,1-1.8,1.6-2.7
			c1.4-2.1,2.5-3.4,3.2-3.8c0.1,0,0.2-0.1,0.5-0.3c0.9-0.8,1.6-1.2,2-1.3c0.5-0.1,1.1-0.1,1.8-0.2c0.1,0,0.2,0,0.3-0.1
			c1.1-0.1,3.3-0.1,6.5,0.2c0.5,0.1,1,0.2,1.3,0.3c0.4,0.1,0.8,0.3,1.2,0.5c0.7,0.3,1.2,0.5,1.6,0.6c0.1,0,0.3,0,0.4-0.1
			c0.2-0.1,0.3-0.5,0.4-1.4c0-0.3,0.1-0.8,0.3-1.6c0.2-0.8,0.5-1.6,0.8-2.5c0.7-2.1,1.2-4,1.7-5.8c0.4-1.5,0.8-2.8,1.2-3.8
			c0.6-1.7,1.6-4.1,2.9-7.3l2.3-5.4c0.9-2.1,1.6-3.8,2.2-5.2c0.6-1.3,2.2-4.5,4.9-9.6c1.7-3.3,3.9-6.9,6.4-10.8
			c1.1-1.7,1.9-3,2.4-3.7c0.9-1,1.8-2,2.8-2.9c1-0.9,1.6-1.3,1.9-1.3c0.2,0,0.5,0,0.9-0.1c0.4-0.1,0.8-0.1,1.2-0.1
			c0.9-0.2,1.4-0.4,1.4-0.5l0-0.2c0-0.1,0.1-0.2,0.3-0.2c0.7,0,1.6,0.2,2.9,0.6c0.5,0.2,0.9,0.3,1.2,0.4c0.3,0.1,0.5,0.3,0.6,0.6
			c0.2,0.3,0.4,0.7,0.6,1.3c0.2,0.6,0.4,1.1,0.4,1.6c0.1,0.5,0.1,1.2,0,2.2c-0.4,3.5-1.1,6.7-2,9.5c-0.5,1.7-1.1,3.5-1.8,5.6
			c-0.3,0.8-0.5,1.3-0.6,1.5s-0.4,1-0.8,2.4l-0.8,2.3l-2.7,6.8c-0.3,0.6-0.7,1.2-0.9,1.9l-0.6,1.5c-1.7,3.5-3.1,6.6-4.2,9.1
			c-1.9,4.2-3.9,8-5.9,11.6c-0.2,0.4-0.5,0.9-0.8,1.5c-0.3,0.6-0.7,1.2-1,1.9c-0.3,0.6-0.6,1-0.8,1.2c-0.2,0.1-0.3,0.4-0.4,0.7
			c0,0.3-0.9,1.9-2.7,4.8l-1,1.7l-2.3,4c-3.8,5.8-5.9,10-6.2,12.4c-0.1,4,0,6.6,0.4,7.8l0.4,1.1c0.1,0.9,0.2,1.4,0.4,1.6
			c0.2,0.2,0.3,0.5,0.3,0.7c0,0.3,0.1,0.7,0.2,1.3c0.2,0.6,0.4,1.2,0.7,1.9c0.3,0.7,0.7,1.1,1,1.3c0,0.1,0.2,0.3,0.3,0.4
			c0.2,0.1,1.1,0.9,2.6,2.4c0.9-0.2,1.5-0.5,1.9-0.7c0.4-0.2,0.9-0.6,1.4-1.3c1.3-1.5,4.4-5.6,9.2-12.2c4.6-6.7,6.9-10.3,7-10.9
			c0-0.3,0.2-0.6,0.6-0.8l0.6-0.2c0.1,0,0.1,0,0.1,0.1c0,0.1-0.1,0.1-0.2,0.3c-0.3,0.6-0.6,1.1-0.7,1.7c0.3-0.5,0.6-0.9,0.9-1.3
			l0.3,1.6l0.2-0.4c0.1-0.2,0.2-0.3,0.5-0.3c0.2,0,0.3,0.1,0.2,0.4c0,0.4-0.3,1-1,2.1c-0.6,1-0.9,1.6-0.9,1.7c0,0.1-0.1,0.2-0.2,0.4
			c-0.1,0.2-0.2,0.5-0.4,0.7c-1.2,2-2.2,3.6-2.8,4.6c-0.7,1-1.2,1.9-1.5,2.6c-0.1,0.3-0.2,0.5-0.3,0.7c-0.1,0.1-0.1,0.2-0.1,0.3
			l0,0.1c0,0.1,0,0.1,0.1,0.1c0.1,0,0.1,0,0.1,0.1c0,0.1-0.1,0.2-0.4,0.4c-0.3,0.2-0.4,0.5-0.4,0.7c0,0.2-0.9,1.8-2.8,4.6
			c-0.7,1.2-1.1,2-1.2,2.4c-0.2,0.7-0.4,1.1-0.7,1.2c-0.2,0.2-0.3,0.4-0.4,0.6c0,0.2-0.1,0.4-0.4,0.6s-0.4,0.3-0.4,0.5
			c0,0.2-0.1,0.4-0.3,0.7c-1,1.1-1.7,1.7-2,1.9c-0.8,0.5-1.9,0.9-3.2,1.1C1225.3,682.3,1224.5,682.4,1223.9,682.4z M1195,673.4
			l0.6-0.1c0.7-0.2,1.5-0.5,2.5-1.1c1-0.5,2.4-1.7,4.1-3.6c1.1-1.3,3.3-3.9,6.6-7.8l0.1-2.8l0.8-7.2c0.4-4,0.7-6.2,0.8-6.6
			c0.2-0.4,0.3-0.7,0.4-0.8c0.2,0,0.3-0.3,0.3-1.1c0-0.5-0.1-1-0.2-1.7c-0.2-0.6-0.4-1.2-0.7-1.6c-0.2-0.4-0.5-0.7-0.6-0.7l-0.2,0
			c-0.2,0-0.3-0.1-0.2-0.4c0-0.5-0.1-0.8-0.5-0.8c-0.7,0-1.9,0.6-3.6,2s-2.7,2.4-3,3.2c-0.5,0.6-0.8,1.1-1,1.6
			c-0.5,0.5-0.7,1-0.7,1.4s-0.1,0.7-0.3,0.9c-0.2,0-0.5,0.3-0.7,0.9c-0.8,1.8-1.3,2.8-1.5,3c-0.3,0.3-0.7,1.1-1.2,2.4
			c-0.9,2.4-1.8,5.1-2.5,8.3c-0.2,1-0.4,2.1-0.5,3.1l-0.1,6.3c-0.1,1.2,0.1,2,0.4,2.5C1194.6,673.1,1194.9,673.4,1195,673.4z
			 M1206.9,665.9c0.2-0.1,0.3-0.2,0.3-0.3l-0.3-0.1c-0.2,0-0.3,0.1-0.3,0.3c0,0.1,0,0.1,0.1,0.1L1206.9,665.9L1206.9,665.9z
			 M1207.4,665.2c0.2,0,0.3-0.1,0.3-0.4l0-0.1c0-0.2,0.1-0.4,0.4-0.5c0.3-0.2,0.4-0.3,0.4-0.3l-0.6,0.1c-0.1,0-0.1-0.1-0.1-0.4
			l0.1-0.3l-0.2,0.1c-0.4,0.3-0.7,0.8-1.1,1.4l0,0.2l0.1-0.1c0.1,0,0.1,0,0.2,0.1c0.1,0,0.1,0.1,0.1,0.1
			C1207.1,665.1,1207.2,665.1,1207.4,665.2L1207.4,665.2z M1210.1,657.1l0.1-0.3c0.1-0.1,0.1-0.3,0.1-0.5l0-0.6l0.1,0l-0.2-0.4
			c-0.1,0.1-0.1,0.4-0.2,0.9C1210.1,656.8,1210.1,657.1,1210.1,657.1z M1210.4,654.5l0-0.5l-0.1-0.1c-0.1,0-0.1,0.1-0.1,0.4
			C1210.2,654.4,1210.2,654.5,1210.4,654.5L1210.4,654.5z M1210.5,652.9l0-0.6l-0.1-0.1c-0.1,0-0.1,0.1-0.1,0.4
			C1210.3,652.8,1210.4,652.9,1210.5,652.9L1210.5,652.9z M1210.7,651.3c0.1,0,0.1-0.1,0.1-0.3c0.1-1.8,0.4-2.7,0.9-2.7
			c0.2,0,0.4-0.1,0.4-0.2c0-0.1-0.1-0.1-0.2-0.1l-0.4,0.1c-0.1,0-0.1-0.1-0.2-0.3c0-0.2,0.1-0.6,0.3-1.2l0.1-0.6
			c0-0.2,0-0.3-0.1-0.3c-0.1,0-0.4,0.8-0.8,2.5c-0.3,1.2-0.4,2.1-0.4,2.5C1210.5,651.2,1210.6,651.3,1210.7,651.3z M1212.3,646.7
			c0.1,0,0.2-0.1,0.2-0.3c0-0.1,0-0.2-0.1-0.3c-0.1,0-0.2,0.1-0.2,0.3L1212.3,646.7z M1212.6,652.9c0.1,0,0.3-0.8,0.6-2.4
			c0.1-0.7,0.2-1.3,0.4-1.9c0.2-0.6,0.3-1,0.4-1.2c0.1-0.2,0.2-0.4,0.2-0.6c0-0.2,0-0.4-0.2-0.4c-0.1,0-0.3,0.4-0.5,1.3
			c-0.5,2-0.8,3.5-0.9,4.7L1212.6,652.9z M1216.5,637.2L1216.5,637.2l0.2-0.9l-0.1-0.1c-0.1,0-0.1,0.1-0.1,0.4
			C1216.4,636.9,1216.4,637.1,1216.5,637.2L1216.5,637.2z M1216.8,635.5c0.1,0,0.1-0.1,0.2-0.3s0.1-0.3,0.1-0.4l-0.2-0.1
			c-0.1,0.1-0.2,0.2-0.3,0.3C1216.7,635.4,1216.8,635.5,1216.8,635.5z M1217.1,634.6c0.1,0,0.3-0.4,0.6-1.3l0.1-0.8
			c-0.1,0.2-0.3,0.5-0.5,0.8c-0.2,0.3-0.3,0.6-0.3,0.9L1217.1,634.6z M1218.3,653.6c0.1,0,0.1-0.1,0.2-0.3c0-0.4,0-0.6-0.1-0.7
			s-0.2-0.1-0.2-0.1c-0.2,0-0.3,0.1-0.3,0.3c0,0.1,0.1,0.1,0.2,0.1c0.1,0,0.2,0.1,0.2,0.4L1218.3,653.6z M1218.6,648.4
			c0.1,0,1.1-1.6,3.1-4.9c1.7-2.6,3.1-4.8,4.1-6.7l2-3.5c1-1.8,2.3-4.2,3.8-7.1c3.8-7.5,5.7-11.8,5.8-12.8l0.2-0.5
			c0.2,0,0.4-0.3,0.8-1.1c0.3-0.7,0.6-1.2,0.7-1.3c0.2-0.1,0.2-0.3,0.3-0.5l-0.1-0.3c0-0.2,0.1-0.6,0.3-1.2c0.2-0.6,0.5-1.3,0.8-2
			c0.3-0.8,0.6-1.4,0.8-2c0.4-0.9,0.7-1.4,0.7-1.5c0-0.1,0.1-0.2,0.2-0.3c0.1-0.1,0.2-0.1,0.2-0.1c0.1,0,0.2,0,0.2,0.1l-0.1,0.3
			c-0.5,1-0.9,2-1.3,3.1c-0.5,1.4-0.7,2.4-0.8,3.2c-0.1,0.2-0.1,0.4-0.2,0.5c0,0.1-0.1,0.3-0.2,0.5c-0.1,0.2-0.1,0.7-0.2,1.5
			l0.1,0.2c0.1,0,0.4-0.4,0.7-1.4c0.4-0.9,0.6-1.4,0.7-1.6c0.1-0.1,0.2-0.4,0.2-0.8c0-0.4,0.1-0.7,0.3-1c0.3-0.5,0.6-1.3,0.8-2.2
			c0.2-1,0.4-1.5,0.7-1.6s0.4-0.4,0.5-0.8l0.2-0.8l1-2.3l0.5-1.3c0.5-0.9,0.8-1.8,0.8-2.5c0-0.2,0.1-0.3,0.2-0.3
			c0.2,0,0.2,0,0.2-0.2l-0.1-0.3c0-0.4,0.1-0.6,0.2-0.6c0.1-0.1,0.2-0.1,0.2-0.2c0-0.1,0.1-0.2,0.1-0.2l-0.1-0.2l0-0.5
			c0.1-0.1,0.2-0.3,0.3-0.4c0.1-0.2,0.2-0.3,0.3-0.5c0-0.1,0.1-0.3,0.1-0.3l-0.2-0.5c0-0.1,0-0.1,0.1-0.1l0.1,0.1
			c0.2,0,0.4-0.1,0.4-0.5c0-0.3,0.2-0.8,0.5-1.4c0.1-0.2,0.2-0.4,0.2-0.6c0-0.1,0-0.2-0.1-0.3c-0.1-0.1-0.1-0.1-0.1-0.2
			c0-0.1,0.1-0.2,0.3-0.3c0.2-0.1,0.4-0.7,0.4-1.9l0.5-1.4l0-0.6c0-0.1,0-0.1,0-0.2c0-0.1,0-0.1,0.1-0.2c0.1-0.1,0.1-0.1,0.1-0.3
			l0-0.7c0-0.3,0.1-0.5,0.2-0.6c0.1-0.1,0.2-0.2,0.2-0.3c0-0.1,0-0.2-0.1-0.2c-0.1,0-0.1-0.1-0.1-0.3c0-0.2,0.1-0.4,0.1-0.6
			c0.1-0.2,0.2-0.5,0.2-0.9c0-0.3,0-0.6,0-0.8l0.1-0.8c0-0.3-0.1-0.6,0-0.9c0-0.3,0-0.4-0.1-0.4c-0.2,0-0.5,0.7-0.8,2.1
			c-0.2,2.3-0.7,4.5-1.4,6.7c-0.2,0.6-0.3,1.1-0.4,1.6c0.1,0,0.1,0.1,0.1,0.2c0,0.1-0.1,0.3-0.1,0.5s-0.2,0.6-0.4,1
			c-0.2,0.4-0.4,0.8-0.5,1.1c-0.2,0.3-0.3,0.4-0.3,0.4c-0.1,0-0.1,0-0.1-0.1c0,0,0-0.1,0-0.1c0-0.3,0.1-0.7,0.3-1.1l0.4-1.2
			c0.4-1.3,0.8-2.4,0.9-3.2l0.1-0.1c0.6-2.3,0.9-4.1,1.1-5.6c0.1-1.4,0-2.2-0.4-2.2l-0.1,0c-0.2,0.2-0.3,0.3-0.3,0.4
			c0,0.1-0.3,0.5-0.9,1.3c-0.6,0.8-1,1.2-1.3,1.4c-0.2,0.1-0.4,0.3-0.6,0.5c-0.7,0.7-1,1.1-1,1.3c0,0.2-0.8,1.6-2.3,4.3
			c-1.5,2.7-2.4,4.1-2.7,4.4s-0.7,1-1.3,2.4c-1,2-1.8,3.5-2.1,4.7l-0.5,0.9c-1,1.5-2,3.6-2.9,6.4c-0.3,0.9-0.6,1.7-1,2.6
			c-0.9,1.7-1.4,2.6-1.4,2.6c0,0.1,0,0.2-0.1,0.4c-0.7,1.2-1,1.9-1.1,2.1c0,0.3-0.3,1-0.9,2.2l-1.7,4.3c-0.3,0.6-0.7,1.5-1.1,2.7
			c-0.4,1.2-0.9,2.7-1.3,4.3s-1,3.6-1.7,6.1c-0.3,0.9-0.5,1.4-0.7,1.7c-0.2,0.5-0.3,0.9-0.3,1.1c0,0.2-0.1,0.7-0.3,1.5l-2.3,8.5
			C1218.9,647,1218.6,648.1,1218.6,648.4z M1220.1,650.9l0.2-0.2c0.1-0.1,0.1-0.1,0.1-0.2c0-0.1,0.1-0.3,0.3-0.6
			c-0.1,0-0.2,0.1-0.3,0.2c-0.2,0.1-0.2,0.3-0.3,0.5L1220.1,650.9L1220.1,650.9z M1220.7,617.7c0.2,0,0.3-0.1,0.3-0.3
			c0-0.1,0-0.1-0.1-0.1c-0.1,0-0.2,0-0.3,0.1c-0.1,0.1-0.2,0.1-0.2,0.2C1220.4,617.6,1220.5,617.7,1220.7,617.7z M1221.1,617
			c0.1,0,0.1-0.1,0.2-0.3l0.1,0l0-0.3c-0.1,0-0.1,0-0.2,0c-0.1,0-0.1,0.2-0.2,0.4C1221,616.9,1221,617,1221.1,617z M1221.4,648.9
			c0.1,0,0.2-0.2,0.5-0.6c0.3-0.4,0.5-0.7,0.5-1c0-0.1,0-0.2-0.1-0.2l-0.4,0.6C1221.6,648.4,1221.4,648.8,1221.4,648.9z
			 M1221.6,645.5c0.1,0,0.2,0,0.3-0.1c0.1-0.1,0.2-0.2,0.2-0.3l-0.1-0.1c-0.1,0-0.2,0-0.3,0.1c-0.1,0.1-0.2,0.1-0.2,0.3
			L1221.6,645.5z M1222.8,646.8c0.1,0,0.2-0.1,0.4-0.4c0-0.4,0.1-0.5,0.3-0.5c0.2,0,0.3-0.1,0.3-0.4c0-0.3,0.1-0.5,0.3-0.6
			c0.2-0.1,0.2-0.3,0.3-0.5l-0.2-0.1l-0.3,0.3C1223.1,645.7,1222.7,646.4,1222.8,646.8C1222.7,646.8,1222.7,646.8,1222.8,646.8z
			 M1222.7,643.7c0.1,0,0.1-0.1,0.2-0.2c0.1-0.1,0.2-0.3,0.4-0.6c0.2-0.3,0.3-0.5,0.3-0.8l-0.1,0.1c-0.1,0.1-0.3,0.3-0.4,0.5
			c-0.3,0.4-0.5,0.6-0.5,0.7C1222.7,643.5,1222.7,643.6,1222.7,643.7L1222.7,643.7z M1223.1,645c0.1-0.1,0.1-0.1,0.1-0.2
			c0-0.1,0.1-0.3,0.1-0.6c-0.1,0-0.2,0.1-0.3,0.3c-0.1,0.2-0.2,0.4-0.2,0.5L1223.1,645z M1223.5,611c0.1,0,0.1-0.1,0.1-0.3
			c0-0.2,0-0.4-0.2-0.4c-0.1,0-0.2,0-0.2,0.1L1223.5,611z M1223.8,614.7L1223.8,614.7c0.2-0.1,0.3-0.2,0.3-0.3
			c0-0.1,0.1-0.2,0.1-0.2l-0.1-0.2c-0.1,0-0.1,0-0.2,0.1C1223.8,614.2,1223.7,614.4,1223.8,614.7
			C1223.7,614.7,1223.7,614.7,1223.8,614.7z M1224.3,609.2L1224.3,609.2c0.2-0.1,0.3-0.3,0.4-0.6c0.1-0.3,0.2-0.5,0.2-0.7
			c0-0.1,0-0.1,0-0.2c0-0.1-0.1-0.1-0.1-0.1l-0.1,0l-0.3-0.3l0.1,0.4c0,0.2-0.1,0.4-0.1,0.4l-0.1,0c-0.1,0-0.1,0-0.2,0.1
			c-0.1,0.1-0.1,0.2-0.2,0.3s0,0.2,0,0.2l0,0.2c0.1,0,0.1-0.1,0.1-0.2c0-0.1,0.1-0.2,0.3-0.2c0.1,0,0.1,0.1,0.1,0.4L1224.3,609.2
			C1224.2,609.2,1224.3,609.2,1224.3,609.2z M1224.2,642.7l0.2-0.4c0-0.1,0-0.1-0.1-0.1l-0.2,0.2c-0.1,0.1-0.2,0.2-0.2,0.3
			c0,0.1,0,0.1,0.1,0.1L1224.2,642.7L1224.2,642.7z M1224.1,641.4C1224.2,641.4,1224.2,641.4,1224.1,641.4l0.1-0.5l-0.1,0
			c-0.1,0-0.1,0.1-0.1,0.3L1224.1,641.4z M1224.6,643.8c0.2-0.1,0.3-0.2,0.3-0.3c0-0.2-0.1-0.3-0.3-0.3c-0.2,0-0.3,0.1-0.3,0.3
			c0,0.1,0,0.2,0.1,0.2C1224.5,643.7,1224.6,643.8,1224.6,643.8z M1225.2,639.7c0.1-0.1,0.2-0.2,0.3-0.4c0.1-0.2,0.2-0.4,0.3-0.6
			c0.1-0.2,0.1-0.3,0.1-0.4c-0.1,0-0.2,0.1-0.3,0.3c-0.2,0.2-0.3,0.4-0.4,0.6c-0.1,0.1-0.2,0.3-0.2,0.4c0,0.1,0,0.1,0.1,0.1
			L1225.2,639.7z M1225.5,642c0.1,0,0.1-0.1,0.2-0.2c0.1-0.1,0.2-0.3,0.4-0.6c0.1-0.3,0.2-0.4,0.2-0.5l-0.4,0.5
			C1225.6,641.7,1225.5,641.9,1225.5,642L1225.5,642z M1226.1,638c0.1,0,0.4-0.3,0.8-0.9c0.4-0.6,0.6-1.1,0.6-1.5l0-0.3l-0.9,1.4
			C1226.3,637.1,1226.1,637.6,1226.1,638z M1226.4,640.4c0.1,0,0.1,0,0.2-0.1c0.1-0.1,0.1-0.2,0.2-0.3c0.1-0.1,0.2-0.3,0.3-0.4
			l0.1-0.6C1226.7,639.8,1226.4,640.2,1226.4,640.4L1226.4,640.4z M1227.8,638.2c0.1,0,0.2-0.2,0.4-0.5c0.2-0.3,0.3-0.6,0.3-0.6
			l-0.4,0.4c-0.3,0.2-0.4,0.4-0.4,0.5C1227.7,638.1,1227.7,638.2,1227.8,638.2z M1228.3,635.1c0.4,0,0.7-0.2,1-0.7
			c0.3-0.5,0.5-0.9,0.5-1.1c-0.1,0-0.2,0.1-0.4,0.4c-0.1,0.3-0.3,0.4-0.4,0.4l-0.1-0.1c0-0.3,0.3-1,0.9-2c0.9-1.4,1.3-2.3,1.4-2.6
			c0-0.1,0-0.1-0.1-0.1c-0.1,0-0.2,0-0.3,0.1c-0.1,0.1-0.2,0.2-0.2,0.5c0,0.3-0.8,1.6-2.2,3.7c-0.3,0.5-0.5,0.9-0.5,1.1
			C1227.8,634.9,1227.9,635,1228.3,635.1z M1228.1,600.7c0.1,0,0.2,0,0.2-0.2c0-0.1,0-0.2-0.1-0.2l-0.2,0.1
			c-0.1,0.1-0.2,0.1-0.2,0.2C1227.8,600.7,1227.9,600.7,1228.1,600.7z M1228.9,636.5c0.2,0,0.4-0.3,0.8-1c0.3-0.7,0.5-1.1,0.5-1.2
			c-0.1,0-0.3,0.2-0.6,0.7c-0.6,0.8-0.9,1.3-0.9,1.6L1228.9,636.5z M1229.1,598.2c0.1,0,0.5-0.4,1.1-1.4l0.6-1.1
			c-0.1,0-0.5,0.4-1.1,1.3C1229.3,597.6,1229.1,598,1229.1,598.2L1229.1,598.2z M1230.3,599.9c0.1-0.1,0.2-0.1,0.2-0.2
			c0-0.1,0.1-0.3,0.1-0.6c-0.1,0-0.2,0.1-0.3,0.3c-0.1,0.2-0.2,0.3-0.2,0.4C1230.1,599.8,1230.2,599.8,1230.3,599.9L1230.3,599.9z
			 M1231.1,673.6c0.1,0,0.2-0.1,0.4-0.3c0.2-0.2,0.5-0.5,0.8-0.8c0.6-0.8,0.9-1.3,0.9-1.5c0-0.2,0-0.3-0.2-0.4l-0.1,0l0-0.1l0.2,0
			c0.2,0,0.5-0.1,0.8-0.5c0.7-0.7,1.6-2.1,2.7-4l4.8-7.5c0.6-0.9,1-1.5,1.1-1.8c0.1-0.3,0.2-0.6,0.2-0.9l-0.2-0.6
			c-0.1,0.2-0.3,0.4-0.4,0.6c-0.2,0.2-0.3,0.5-0.5,0.7c-0.2,0.3-0.3,0.5-0.5,0.6c-0.2,0.2-0.3,0.4-0.5,0.7c-0.2,0.3-0.4,0.5-0.5,0.7
			c-0.1,0.2-0.4,0.7-0.9,1.4c-0.5,0.8-1.1,1.6-1.7,2.6c-0.6,1-1.2,1.9-1.7,2.6c-0.5,0.8-0.9,1.2-1.1,1.5c-0.2,0.2-0.3,0.4-0.3,0.5
			c0,0.1,0,0.1,0.1,0.1s0.1,0,0.1,0.1c0,0.1-0.2,0.2-0.5,0.5c-0.3,0.2-0.5,0.5-0.5,0.6c0,0.2-0.1,0.2-0.2,0.2s-0.2,0-0.3,0.2
			c-0.1,0.1-0.2,0.3-0.2,0.5c0,0.2-0.2,0.5-0.6,0.8l-0.3,0.2l0,0.3c0.1,0,0.1,0,0.1,0.1c0,0.1,0,0.1-0.1,0.2
			c-0.1,0.1-0.1,0.1-0.2,0.1c-0.1,0-0.1,0.1-0.1,0.1c0,0.1,0,0.2,0.2,0.3c0.1,0.1,0.2,0.4,0.1,0.7c-0.1,0.1-0.2,0.2-0.4,0.2
			c-0.1,0-0.1,0-0.1-0.1c0-0.1,0-0.2,0-0.3c0-0.1,0-0.2-0.2-0.2c-0.1,0-0.2,0.1-0.4,0.2c-0.2,0.2-0.3,0.3-0.3,0.3
			c0,0.1,0.1,0.1,0.3,0.1c0.2,0,0.3,0,0.4,0.1c0.1,0,0.1,0.1,0.1,0.1c0,0.1,0,0.2-0.1,0.3c0,0.1-0.1,0.2-0.2,0.3
			C1231.1,673.3,1231,673.4,1231.1,673.6C1231,673.5,1231.1,673.6,1231.1,673.6z M1231.1,631c0.1,0,0.1-0.1,0.1-0.3
			c0-0.2,0-0.3-0.1-0.3s-0.1,0.1-0.1,0.4C1231,630.9,1231,631,1231.1,631z M1231,598.4l0.2-0.2c0.1-0.1,0.2-0.1,0.2-0.3l0.1-0.1
			l-0.1-0.1c-0.2,0-0.3,0.1-0.3,0.2C1231.1,598.2,1231,598.3,1231,598.4z M1231.3,628.5L1231.3,628.5c0.1-0.4,0.1-0.5,0-0.5
			s-0.1,0.1-0.1,0.3C1231.2,628.4,1231.2,628.5,1231.3,628.5z M1231.7,632.1c0.2,0,0.3-0.1,0.3-0.4c0-0.3,0.1-0.5,0.3-0.7
			c0.2-0.1,0.2-0.3,0.3-0.6l-0.1-0.1c-0.1,0-0.3,0.2-0.5,0.6c-0.2,0.4-0.4,0.7-0.4,0.9C1231.5,632,1231.5,632.1,1231.7,632.1z
			 M1232.3,626.4c0.1,0,0.3-0.3,0.7-1c0.6-1.3,1-2.2,1-2.5c-0.1,0.1-0.4,0.7-0.9,1.7C1232.6,625.6,1232.3,626.2,1232.3,626.4z
			 M1232.7,629.6c0.1-0.1,0.2-0.2,0.3-0.4c0.2-0.2,0.3-0.4,0.3-0.8l0-0.1c-0.1,0-0.2,0.1-0.3,0.3c-0.1,0.2-0.2,0.4-0.3,0.6
			C1232.7,629.5,1232.6,629.6,1232.7,629.6L1232.7,629.6z M1233.5,628.2c0.1,0,0.2-0.1,0.3-0.2c0.2-0.1,0.2-0.4,0.3-0.7l0.2-0.5
			C1233.8,627.5,1233.5,627.9,1233.5,628.2z M1234.3,622.5c0.3-0.3,0.5-0.7,0.5-1.3c0-0.1,0-0.1-0.1-0.1l-0.1,0.2
			c-0.1,0.2-0.3,0.4-0.4,0.6c-0.1,0.2-0.2,0.4-0.2,0.5C1234.1,622.5,1234.2,622.5,1234.3,622.5L1234.3,622.5z M1235.4,620
			c0.1,0,0.2-0.3,0.5-0.8l0.5-1.1l-0.1-0.3c-0.1,0-0.3,0.2-0.5,0.5c-0.4,0.7-0.5,1.2-0.6,1.5C1235.3,620,1235.3,620,1235.4,620z
			 M1236.8,616.8c0.1-0.1,0.3-0.1,0.4-0.3c0.2-0.1,0.2-0.3,0.3-0.6s0.1-0.5,0.2-0.7c0.1-0.2,0.2-0.3,0.3-0.4c0-0.1,0-0.2-0.1-0.2
			c-0.1,0-0.2,0.1-0.4,0.4c-0.2,0.3-0.4,0.6-0.6,1C1236.8,616.3,1236.7,616.6,1236.8,616.8C1236.7,616.7,1236.7,616.8,1236.8,616.8z
			 M1238.5,615.1c0.2,0,0.4-0.2,0.6-0.7c0.2-0.5,0.3-0.9,0.3-1.1c0-0.1-0.1-0.2-0.4-0.2c-0.2,0-0.3,0.1-0.3,0.3l0.1,0.6l-0.3-0.4
			c-0.2,0-0.3,0.1-0.3,0.4c0,0.1,0,0.2,0.1,0.3c0.1,0.1,0.2,0.2,0.2,0.2l-0.1,0.4C1238.4,615,1238.5,615.1,1238.5,615.1z"/>
	</g>
	<circle class="st0" cx="930.3" cy="436.8" r="5.5"/>
	<circle class="st0" cx="964.3" cy="437.8" r="5.5"/>
	<g>
		<path class="st0" d="M923.6,489.1c6.3-15.2,30.1-16.2,39.6-3.6c1.3,1.8,2.4,3.8,2.8,6c0,0-0.5,0.4-0.5,0.4
			c-2.5-2.9-5.8-5.1-9.2-6.6c-8.7-3.7-19.2-3.5-27.6,1c-1.7,0.9-3.3,1.9-4.7,3.2L923.6,489.1L923.6,489.1z"/>
	</g>
</g>
</svg>
