<?xml version="1.0" encoding="utf-8"?>
<!-- Generator: Adobe Illustrator 27.9.0, SVG Export Plug-In . SVG Version: 6.00 Build 0)  -->
<svg version="1.1" id="Layer_1" xmlns="http://www.w3.org/2000/svg" xmlns:xlink="http://www.w3.org/1999/xlink" x="0px" y="0px"
	 viewBox="0 0 500 500" style="enable-background:new 0 0 500 500;" xml:space="preserve">
<style type="text/css">
	.st0{fill:#91AA65;}
</style>
<g>
	<g>
		<path class="st0" d="M53,279.4c48.8-1.2,97.7-2.4,146.5-3.6c48.6-1.2,97.2-2.4,145.8-3.6c27.4-0.7,54.8-1.4,82.2-2
			c7.8-0.2,15.6-3.2,21.2-8.8c2.9-2.7,5-5.9,6.2-9.7c1.9-3.6,2.7-7.4,2.6-11.6c-0.3-7.8-2.9-15.8-8.8-21.2c-5.8-5.3-13.2-9-21.2-8.8
			c-48.8,1.2-97.7,2.4-146.5,3.6c-48.6,1.2-97.2,2.4-145.8,3.6c-27.4,0.7-54.8,1.4-82.2,2c-7.8,0.2-15.6,3.2-21.2,8.8
			c-2.9,2.7-5,5.9-6.2,9.7c-1.9,3.6-2.7,7.4-2.6,11.6c0.3,7.8,2.9,15.8,8.8,21.2C37.6,275.9,45,279.6,53,279.4L53,279.4z"/>
	</g>
</g>
<g>
	<g>
		<path class="st0" d="M284.5,113.8c15.3,20.3,31.2,40.2,48.1,59.3c15.3,17.3,31.4,34.1,48,50.1c4.7,4.5,9.4,8.9,14.1,13.3
			c2.4,2.2,4.8,4.4,7.3,6.6c2.3,2,4.7,4,6.7,6.3c-1.6-2-3.1-4-4.7-6.1c0.5,0.7,1,1.5,1.4,2.3c-1-2.4-2-4.8-3-7.2
			c0.2,0.6,0.4,1.2,0.5,1.8c-0.4-2.7-0.7-5.3-1.1-8c0.1,0.8,0.1,1.6,0,2.4c0.4-2.7,0.7-5.3,1.1-8c-0.2,1-0.5,1.9-0.8,2.8
			c1-2.4,2-4.8,3-7.2c-2.1,4.6-5.7,8.6-8.7,12.6c-3.2,4.2-6.4,8.4-9.6,12.5c1.6-2,3.1-4,4.7-6.1c-12.5,16.2-25.3,32.1-38.4,47.7
			c-13,15.6-26.4,30.9-40,46c-7.7,8.5-15.5,17-23.4,25.3c-2.9,2.7-5,5.9-6.2,9.7c-1.9,3.6-2.7,7.4-2.6,11.6c-0.2,4.1,0.7,8,2.6,11.6
			c1.2,3.7,3.3,6.9,6.2,9.7c2,1.6,4,3.1,6.1,4.7c4.7,2.7,9.7,4.1,15.1,4.1c2.7-0.4,5.3-0.7,8-1.1c5.1-1.4,9.5-4,13.2-7.7
			c16.8-17.8,33.1-35.9,49-54.4c15.9-18.4,31.3-37.3,46.3-56.4c8.9-11.4,17.9-22.8,26.4-34.5c3.1-4.2,5.6-9.3,6.8-14.4
			c2.2-9.8,1.5-20.7-4.2-29.3c-2.9-4.4-6.1-7.9-10-11.4c-2.2-1.9-4.4-3.9-6.5-5.9c-17.4-15.8-34.1-32.4-50.1-49.6
			s-31.3-35-45.8-53.5c-1.8-2.3-3.6-4.6-5.4-6.9c1.6,2,3.1,4,4.7,6.1c-2.3-3-4.6-6-6.9-9c-1.9-3.5-4.5-6.3-7.7-8.4
			c-2.9-2.7-6.3-4.4-10.2-5.4c-4-1.3-8-1.4-12-0.5c-4,0.2-7.7,1.4-11.2,3.6c-2,1.6-4,3.1-6.1,4.7c-3.7,3.7-6.3,8.2-7.7,13.2
			c-0.4,2.7-0.7,5.3-1.1,8C280.4,104.1,281.7,109.1,284.5,113.8L284.5,113.8z"/>
	</g>
</g>
<g>
	<g>
		<path class="st0" d="M270.5,96.6c1.9,35.2,3.4,70.5,4.4,105.7c1,35.3,1.5,70.5,1.6,105.8c0,19.8-0.1,39.6-0.3,59.4
			c-0.2,4.1,0.7,8,2.6,11.6c1.2,3.7,3.3,6.9,6.2,9.7c2.7,2.9,5.9,5,9.7,6.2c3.6,1.9,7.4,2.7,11.6,2.6c2.7-0.4,5.3-0.7,8-1.1
			c5.1-1.4,9.5-4,13.2-7.7c1.6-2,3.1-4,4.7-6.1c2.7-4.7,4.1-9.7,4.1-15.1c0.4-35.3,0.4-70.5,0-105.8c-0.5-35.3-1.4-70.5-2.8-105.8
			c-0.8-19.8-1.7-39.5-2.8-59.3c0.2-4.1-0.7-8-2.6-11.6c-1.2-3.7-3.3-6.9-6.2-9.7c-2.7-2.9-5.9-5-9.7-6.2c-3.6-1.9-7.4-2.7-11.6-2.6
			c-2.7,0.4-5.3,0.7-8,1.1c-5.1,1.4-9.5,4-13.2,7.7c-1.6,2-3.1,4-4.7,6.1C271.9,86.2,270.5,91.2,270.5,96.6L270.5,96.6z"/>
	</g>
</g>
</svg>
