<?xml version="1.0" encoding="utf-8"?>
<!-- Generator: Adobe Illustrator 27.9.0, SVG Export Plug-In . SVG Version: 6.00 Build 0)  -->
<svg version="1.1" xmlns="http://www.w3.org/2000/svg" xmlns:xlink="http://www.w3.org/1999/xlink" x="0px" y="0px"
	 viewBox="0 0 256 256" style="enable-background:new 0 0 256 256;" xml:space="preserve">
<style type="text/css">
	.st0{fill:#F6F4F7;}
	.st1{fill:#492C0E;}
</style>
<g id="Layer_2">
	<circle class="st0" cx="128" cy="128.5" r="126.8"/>
</g>
<g id="Layer_1">
	<g transform="translate(1.4065934065934016 1.4065934065934016) scale(2.81 2.81)">
		<path class="st1" d="M56.7,79.1h-19c-1.6,0-3-1.3-3-2.9l0-0.7c0-1.1,0-2.4,0-3.7c-11.3,1.7-14.4-5.6-14.8-6.5l0,0
			c-1.7-4.4-4.1-5.6-4.2-5.6l-0.2-0.1c-0.8-0.6-2.8-1.9-2.3-3.7c0.5-1.6,2.6-1.7,3.4-1.7l0.1,0c5.2,0.4,7.9,5.1,8,5.3
			c2.9,5,7.4,4.4,10.2,3.3c0.3-1.4,0.7-2.6,1.3-3.7c-8.7-1.5-18.8-6-18.8-22.9c0-4.6,1.5-8.7,4.3-12.2c-0.6-2-1.4-6.4,0.7-11.9
			l0.3-0.7l0.7-0.2C24,11,28,10,36.4,15.5c3.4-0.9,7-1.3,10.8-1.4c3.7,0,7.4,0.5,10.8,1.4c8.4-5.5,12.4-4.5,12.9-4.3l0.7,0.2
			l0.3,0.7c2.2,5.5,1.4,9.9,0.7,11.9c2.9,3.4,4.3,7.5,4.3,12.2c0,17-10.1,21.5-18.8,22.9c1.1,1.9,1.7,4.3,1.7,7c0,3.9,0,7.4,0,9.6
			l0,0.5C59.7,77.8,58.3,79.1,56.7,79.1z M37.8,76.1h18.9l0-0.4c0-2.3,0-5.7,0-9.6c0-4.4-1.7-6.4-2.5-7l-2.6-2.3l3.4-0.4
			c9.3-1,18.8-4.3,18.8-20.3c0-4.2-1.4-7.8-4.1-10.8l-0.6-0.7l0.4-0.9c0.3-0.7,1.6-4.5-0.1-9.7c-1.3,0-4.6,0.6-10.2,4.4l-0.6,0.4
			l-0.7-0.2c-3.3-0.9-7-1.4-10.7-1.4c-3.6,0-7.3,0.5-10.6,1.4l-0.7,0.2l-0.6-0.4c-5.6-3.8-8.9-4.3-10.2-4.4c-1.8,5.2-0.4,9-0.1,9.7
			l0.4,0.9l-0.6,0.7c-2.8,3-4.2,6.7-4.2,10.8c0,16,9.5,19.2,18.8,20.3l3.4,0.4l-2.6,2.3c-0.7,0.6-1.9,2-2.3,5l-0.1,0.8L37,65.2
			c-2.3,1-10.1,3.7-14.8-4.3c0-0.1-1.6-2.8-4.4-3.6c1.1,0.8,3.3,2.7,5,6.9l0,0.1c0.1,0.3,2.4,6.5,13.1,4.2l1.8-0.4l0,1.9
			c0,2,0,4,0,5.5L37.8,76.1z"/>
	</g>
</g>
</svg>
