<?xml version="1.0" encoding="utf-8"?>
<!-- Generator: Adobe Illustrator 28.0.0, SVG Export Plug-In . SVG Version: 6.00 Build 0)  -->
<svg version="1.1" id="Layer_1" xmlns="http://www.w3.org/2000/svg" xmlns:xlink="http://www.w3.org/1999/xlink" x="0px" y="0px"
	 viewBox="0 0 512 512" style="enable-background:new 0 0 512 512;" xml:space="preserve">
<style type="text/css">
	.st0{opacity:0.7;}
	.st1{fill:#815D89;}
	.st2{fill:none;stroke:#FAFAFA;stroke-width:2;stroke-miterlimit:10;}
	.st3{fill:#FAFAFA;}
	.st4{fill:#F266D5;}
</style>
<g id="Layer_1_00000135672506528727373220000000658354159786260110_">
	<g id="Layer_1_00000089556996993382028780000017166266178458170779_">
		<g class="st0">
			<circle class="st1" cx="256" cy="256" r="254"/>
		</g>
		<ellipse class="st2" cx="256" cy="254.5" rx="239" ry="246.5"/>
		<ellipse class="st2" cx="255" cy="254.5" rx="246.5" ry="239"/>
	</g>
</g>
<g id="Layer_3">
</g>
<g id="Layer_4">
	<g>
		<path class="st3" d="M138,343.7c-1.4-0.6-2.8-1.1-4.4-1.6c-9.7-2.8-18.6-1.3-24.4,0.4c-0.5-1.1-1.1-2.9-1.4-5.3
			c-0.9-7.9,2.9-17.4,10.1-20.7c1.6-0.8,3-1.1,3.8-1.2l4-0.3c2-1.1,4-2.2,6.1-3.3c0.1-3.7,0.2-7.3,0.4-11c-0.7-10.1-1.3-20.2-2-30.3
			c0-0.1,0-0.2,0.1-0.4c1.4-6.4-0.7-10.3-1.1-19c0-0.6-0.1-1.6-0.1-2.9c0.2-0.3,0.2-0.9,0.2-2c0-1.1,0-4.2,0-9.4
			c-0.4-8.7-0.4-15.9-0.4-21.7c0.2-5,0-8.2-0.2-9.7c0.5-26.5,0.5-44.4,0.2-53.9c-0.2-2.1-0.4-7.9-0.5-17.1c0.4-5.9,0.4-10.5,0-14
			c-0.4-3.4-0.2-5.3,0.4-5.9c0.5-0.5,1.5-1.1,2.8-1.5c3.8-1.2,8.7-1.8,14.8-2.3c4.5-0.3,8-0.3,10.2,0c2.1,0.3,4.3,0.9,6.6,1.8
			c7,3,11,7.3,11.7,13c0.5,3.7,0.8,10.9-0.4,25.6c-0.6,7.1-0.9,10-1.3,16.7c-0.3,5.7-0.5,10.6-0.5,12.4c-0.1,3.6-0.2,6.3-0.2,7.9
			c-0.1,9.1-0.4,18.2-0.5,27.3c-0.3,16.9-0.4,17.3-0.2,19.5c0.7,8.2,1.8,9.2,2.2,17.9c0.4,8.1-0.3,10.9,1.2,11.7
			c2,1,5.3-2.3,17.2-13.7c7-6.6,7.3-6.8,7.8-7.3c1.2-1.1,1.9-1.9,2.2-2.2c14.6-16,29.6-31.6,43.9-47.9c7.9-9,26.9-30.6,47.2-52.1
			c13.5-14.3,20.2-21.4,23.1-23.8c5.4-4.4,9.7-10.1,15-14.7c3.3-2.8,6.8-5.6,6.6-9.4c-0.1-2.4-1.7-4.8-3.6-6.1
			c-2.8-1.9-4.5-0.3-8.8-2c-1.2-0.5-4.8-1.9-6.3-5.3c-0.1-0.3-1.6-3.6-0.3-6.4c1.9-4.3,8.3-3.4,30.5-6.6c0.9-0.1,3.9-0.6,7.9-0.4
			c5.2,0.2,9.4,0.3,13,3c0.6,0.5,2.4,2.5,6,6.5c1.8,2,2.8,3.2,3.5,4c0.7,0.8,5.5,6.7,6.5,13c1.6,10.3-7.3,19.7-8.5,21
			c-3.7,3.9-6.6,4.8-10,10.1c-1.1,1.7-2.1,3.4-4.2,6.7c-1.5,2.5-3.2,4.6-4.7,6.4c-15,17.2-24.4,27.4-28.2,30.5
			c-2.4,1.7-5.7,5.2-9.9,10.4c-4,5.3-7.2,8.8-9.6,10.7c-2.3,1.8-4.7,4.2-7,6.7c-8.1,9.1-31,30.8-40,40.1
			c-41.8,43.1-45.1,47.4-59.1,60c-10.4,9.3-19.2,16.6-24.9,21.1c5.1,0.3,12.5,1,21.4,2.4c9.7,1.5,16.8,3.3,28,6
			c13.6,3.3,23.8,6.2,26.5,7c20.1,5.7,21.6,7.1,42.4,13c6.8,1.9,10.4,2.8,19.5,5.5c11.2,3.3,10.8,3.4,20,6c6.8,2,13.6,4.1,20.5,6
			c5,1.4,8.1,2.2,12,4.5c2.6,1.5,6.3,3.7,9.5,8c1.4,1.8,4.7,6.6,5,13.5c0.1,1.9,0.2,7-3,12c-2.2,3.5-4.9,5.2-8.5,7.5
			c-1.1,0.7-5.5,3.4-12,5.1c-1.4,0.4-3,0.7-5.5,1.1c-10.3,1.7-16.1,2.7-21.4,0.3c-5.7-2.6-10.3-9.1-8.7-12c1.4-2.7,7.6-2,9.3-1.8
			c0.8-0.6,1.9-1.5,1.9-2.6c-0.1-2-3.6-3.3-5.5-4c-7.7-2.7-11.6-4.1-24.5-6c-6.5-1-3.9-1.5-23.5-7.5c-5.8-1.8-14.3-4-30.9-8.5
			c-11.3-3-18.3-4.9-28.5-7.5c-9.1-2.3-19.9-5.1-31.9-8c-2.3-0.8-4.7-1.7-7-2.5c-1.3,0.2-2.7,0.3-4,0.5c0.7,6.2,1.3,12.3,2,18.5
			c3.7,11.6,7.4,23.4,11,35.4c2.1,6.9,4,13.7,6,20.5c-2.3,1.8-5.5,4-9.5,6c-1.8,0.9-5.2,2.6-10,4c-5.2,1.5-11,3.1-18,1.5
			c-3.1-0.7-7-1.7-10-5c-3-3.3-3.5-7.5-4.5-14.5c-0.5-3.6-0.6-6.6-0.7-8.5c-0.6-3.1-1.5-7.5-2.5-12.8c-1.4-7.7-3.1-16.7-4.5-27.7
			C139.8,364.5,138.8,354.9,138,343.7z"/>
	</g>
</g>
<g id="Layer_2_00000069391453376082333440000006043394659394402212_">
	<path class="st4" d="M82.5,289.4c-7.5-2.1-17.9-0.3-24,6.5c-7.7,8.5-4.8,20.8-4,24.8c2.3,10.2,8.5,16.5,16.9,24.9
		c11.1,11.1,22.1,16.9,26.3,19.1c13.2,6.5,23.3,11.7,34.7,9.4c14.5-2.8,22.5-15.9,32.4-32.7c10.1-16.9,24.5-41,14.7-59.2
		c-6.3-11.5-19.4-15.7-19.9-15.8c-10.4-3-19.2,0-22.2,1.3c-2.3,1-11.2,4.6-16.4,13.4c-2.8,4.8-10.2,21.3-11.8,24.2
		c-0.3,0.4-0.9,1.3-1.6,1.3c-0.7,0-1.1-0.7-1.3-0.9C105,303.7,91.7,292.1,82.5,289.4z"/>
</g>
<path class="st3" d="M156.9,358.1"/>
<path class="st3" d="M129.4,348.5"/>
<path class="st3" d="M140.6,344.1"/>
<path class="st3" d="M368.1,393.8"/>
</svg>
